<svg width="63" height="62" viewBox="0 0 63 62" fill="none" xmlns="http://www.w3.org/2000/svg">
<g clip-path="url(#clip0)">
<path d="M58.0427 16.1978C55.2961 11.4482 51.5704 7.68788 46.8648 4.91608C42.1585 2.14413 37.0206 0.758514 31.4474 0.758514C25.875 0.758514 20.7354 2.14456 16.03 4.91608C11.324 7.68774 7.59848 11.4482 4.85183 16.1978C2.1056 20.9473 0.732422 26.1338 0.732422 31.7572C0.732422 38.5121 2.68511 44.5863 6.59146 49.9813C10.4974 55.3767 15.5433 59.1102 21.7287 61.182C22.4487 61.3169 22.9817 61.222 23.3282 60.8998C23.6749 60.5772 23.8481 60.1732 23.8481 59.6894C23.8481 59.6087 23.8412 58.8824 23.8279 57.5098C23.8142 56.1372 23.8077 54.9397 23.8077 53.918L22.8878 54.0786C22.3013 54.1871 21.5614 54.233 20.6682 54.22C19.7753 54.2074 18.8484 54.113 17.8887 53.9374C16.9286 53.7634 16.0356 53.3597 15.209 52.7274C14.3829 52.095 13.7964 51.2672 13.4497 50.2454L13.0497 49.3165C12.7832 48.6982 12.3635 48.0112 11.7902 47.2583C11.2168 46.5046 10.637 45.9937 10.0505 45.7246L9.77052 45.5223C9.58394 45.3879 9.4108 45.2257 9.25069 45.0375C9.09072 44.8494 8.97096 44.6611 8.89097 44.4725C8.81085 44.2837 8.87725 44.1289 9.09087 44.0075C9.30448 43.886 9.69054 43.8271 10.2507 43.8271L11.0503 43.9477C11.5835 44.0555 12.2432 44.3777 13.03 44.9162C13.8164 45.4543 14.4628 46.1538 14.9695 47.0145C15.5831 48.1181 16.3222 48.959 17.1892 49.5377C18.0554 50.1163 18.9288 50.4051 19.8085 50.4051C20.6882 50.4051 21.448 50.3378 22.0881 50.204C22.7276 50.0694 23.3275 49.8671 23.8877 49.5982C24.1277 47.7945 24.781 46.4089 25.8471 45.4403C24.3275 45.2791 22.9614 45.0364 21.7479 44.7136C20.5351 44.3905 19.2818 43.866 17.9889 43.1387C16.6953 42.4125 15.6221 41.5107 14.7692 40.4348C13.9161 39.3584 13.216 37.9452 12.6699 36.1965C12.1234 34.4471 11.8501 32.4291 11.8501 30.142C11.8501 26.8854 12.9035 24.1141 15.0099 21.8267C14.0231 19.3783 14.1163 16.6337 15.2896 13.593C16.0628 13.3505 17.2095 13.5325 18.7291 14.1377C20.2489 14.7432 21.3617 15.2619 22.0685 15.692C22.7753 16.1219 23.3417 16.4862 23.7684 16.7817C26.2484 16.0823 28.8078 15.7326 31.4471 15.7326C34.0865 15.7326 36.6464 16.0823 39.1266 16.7817L40.6463 15.8134C41.6856 15.1673 42.9128 14.5753 44.3251 14.037C45.7382 13.4991 46.8187 13.351 47.5656 13.5934C48.765 16.6343 48.8718 19.3788 47.8849 21.8271C49.9911 24.1146 51.0449 26.8865 51.0449 30.1424C51.0449 32.4295 50.7706 34.4539 50.225 36.2167C49.6787 37.9798 48.9726 39.3916 48.1063 40.455C47.2391 41.5183 46.1591 42.413 44.8662 43.1392C43.573 43.8658 42.3193 44.3903 41.1065 44.7135C39.8931 45.0367 38.527 45.2796 37.0074 45.441C38.3933 46.6515 39.0864 48.5622 39.0864 51.1722V59.6883C39.0864 60.172 39.2531 60.576 39.5868 60.8987C39.92 61.2209 40.4463 61.3158 41.1663 61.1808C47.3526 59.1092 52.3984 55.3756 56.3042 49.9802C60.2096 44.5851 62.163 38.5109 62.163 31.756C62.1616 26.1334 60.7877 20.9473 58.0427 16.1978Z" fill="#75E6DA"/>
</g>
<defs>
<clipPath id="clip0">
<rect width="61.431" height="62" fill="white" transform="translate(0.732422)"/>
</clipPath>
</defs>
</svg>
