<svg width="1920" height="905" viewBox="0 0 1920 905" fill="none" xmlns="http://www.w3.org/2000/svg">
<path d="M-68.4385 974.462C-67.3716 973.696 -62.7483 969.715 -58.125 965.733C-49.234 958.153 -44.9663 956.622 -40.343 959.302C-39.0983 960.068 -38.0314 961.752 -38.0314 963.13C-38.0314 966.346 -30.3852 970.327 -24.5171 970.327C-18.6491 970.327 -12.6032 967.418 -3.8901 960.527C9.26851 950.267 16.5591 948.124 23.8497 952.564C26.6948 954.249 27.0504 955.474 26.3392 959.072C25.6279 962.671 26.1613 963.819 28.8286 965.044C31.8516 966.422 33.4519 966.576 44.2989 966.116C55.5015 965.58 56.7462 965.733 61.0139 967.341L65.4594 969.179L64.3925 966.882C62.0808 961.829 61.7252 957.311 63.1477 953.942C65.1037 949.272 66.3485 948.813 70.794 951.416C75.2394 954.019 81.2853 955.397 91.421 956.163C98.8894 956.699 105.469 959.225 108.492 962.977C110.27 965.274 112.226 963.666 116.493 956.546C118.627 952.947 121.295 948.889 122.184 947.588L124.14 945.061H140.499C179.441 945.061 227.63 941.386 394.069 925.537C426.788 922.475 460.751 919.335 469.642 918.723C478.356 918.034 487.424 917.268 489.558 917.115C492.759 916.809 493.648 917.038 493.648 918.263C493.648 919.106 494.004 919.795 494.359 919.795C494.893 919.795 501.116 919.259 508.229 918.646C525.833 917.038 560.152 914.971 616.343 912.138C753.442 905.324 809.277 899.965 861.022 888.786L883.072 884.039L887.695 888.48C893.919 894.299 906.011 899.199 918.814 901.036C923.97 901.802 929.483 902.721 930.728 903.18C934.284 904.405 934.817 903.41 933.039 899.811C930.728 895.524 930.55 887.561 932.684 885.111C934.106 883.503 935.707 883.197 945.309 882.891C951.71 882.661 957.223 882.049 958.823 881.359C960.246 880.747 962.202 877.914 963.268 875.081C965.758 867.118 970.737 864.209 987.985 860.457C991.364 859.692 997.41 858.39 1001.14 857.625C1041.51 848.896 1157.62 853.567 1253.83 867.884C1272.32 870.64 1305.21 877.072 1306.99 878.373C1309.66 880.134 1313.39 879.063 1317.84 875.387C1327.98 866.812 1339 863.597 1361.41 862.754C1379.01 862.065 1384.7 861.3 1390.75 858.543C1397.15 855.634 1398.93 855.634 1397.68 858.543C1396.44 861.223 1396.61 861.223 1403.37 859.692C1414.93 857.089 1445.16 858.39 1517 864.592C1559.32 868.267 1590.61 869.722 1604.48 868.726C1618.35 867.654 1620.13 867.118 1617.29 864.439C1615.51 862.754 1615.69 862.065 1618.18 860.457C1619.78 859.385 1623.16 858.084 1625.47 857.625C1632.76 856.246 1636.31 858.467 1644.32 869.569C1648.23 875.081 1653.74 881.13 1656.23 883.044L1661.03 886.489L1662.1 876.919C1664.23 858.62 1674.72 841.929 1688.77 834.119L1692.15 832.282V835.497C1692.15 837.182 1692.86 838.637 1693.75 838.637C1694.82 838.637 1706.2 831.669 1719.36 823.171C1733.4 813.983 1746.74 806.173 1751.9 804.183L1760.61 800.737L1761.14 809.466L1761.68 818.27L1767.37 814.519C1770.57 812.452 1776.44 809.695 1780.7 808.394C1788.17 806.173 1789.24 806.097 1810.58 805.867L1832.8 805.561L1842.05 808.623C1847.21 810.231 1858.41 814.289 1867.3 817.505C1885.08 824.013 1904.64 828.683 1916.91 829.219C1927.4 829.755 1939.32 827.841 1948.56 824.242C1952.3 822.788 1955.86 821.716 1956.21 821.946C1956.74 822.099 1960.3 828.454 1964.39 836.033C1968.48 843.537 1973.64 853.337 1976.13 857.778C1978.44 862.218 1980.93 866.965 1981.46 868.344C1981.99 869.645 1983.06 870.794 1983.95 870.794C1988.75 870.794 1989.82 859.003 1996.22 734.126C2007.96 506.271 2007.96 316.621 1996.04 206.215C1992.49 171.685 1983.95 129.345 1978.26 116.329C1977.37 114.261 1976.66 108.366 1976.66 103.16C1976.66 97.9532 1976.3 93.6656 1975.77 93.6656C1975.42 93.6656 1972.93 94.0484 1970.44 94.5844C1967.06 95.2734 1965.46 95.2734 1963.86 94.5844C1960.66 93.2062 1956.21 93.4359 1952.65 95.1969C1948.56 97.1876 1946.43 96.4985 1946.43 93.2062C1946.43 90.2968 1949.1 89.9139 1958.17 91.3687C1964.39 92.4406 1964.92 92.0577 1961.55 89.378C1960.12 88.153 1958.88 86.0092 1958.88 84.631C1958.88 81.4153 1964.03 70.5432 1965.99 69.701C1966.7 69.3181 1968.3 70.8494 1969.37 73.1464C1973.99 82.1809 1978.79 87.6936 1984.48 90.4499C1991.77 93.8187 1996.75 93.5125 1995.15 89.6843C1990.17 77.8168 1984.31 72.8401 1969.72 67.94C1964.03 66.0259 1957.46 63.0399 1955.14 61.2789C1951.23 58.2929 1950.88 58.2163 1950.34 59.9773C1949.99 61.0492 1950.52 63.5758 1951.77 65.7196C1953.72 69.3181 1953.54 69.9307 1948.21 75.9027C1945.01 79.4246 1940.56 83.2528 1938.43 84.3247L1934.34 86.392L1930.43 84.8607C1923.85 82.2575 1922.96 80.7262 1921.36 69.0119C1920.65 62.5805 1918.87 56.7616 1917.62 55.6131C1915.85 54.0053 1911.22 52.7802 1896.64 50.1771C1886.33 48.3395 1863.21 44.1285 1845.07 40.8362C1802.93 33.1798 1792.79 31.4954 1772.17 28.6625C1733.94 23.4561 1711 21.6951 1679.52 21.6951H1657.83L1658.72 16.7184L1659.79 11.8183L1651.25 13.6559C1646.63 14.6512 1634.18 16.5653 1623.87 17.7903C1613.55 19.0154 1601.28 20.9295 1596.84 22.0014L1588.84 23.9155L1587.06 22.0014C1584.92 19.3982 1580.12 6.76508 1580.12 3.16655C1580.12 1.5587 1579.23 0.257107 1578.34 0.257107C1577.28 0.257107 1576.57 0.563365 1576.57 1.02275C1576.57 1.40557 1573.37 2.78373 1569.45 4.00876C1553.45 8.98544 1513.44 12.1246 1471.48 11.5886L1445.34 11.2824L1444.62 26.4421C1444.27 34.7876 1443.2 41.8315 1442.49 42.1378C1440.18 43.1331 1435.2 41.1425 1433.07 38.233C1431.82 36.6252 1429.51 30.8828 1428.09 25.3702C1425.06 14.5746 1423.64 12.5074 1418.31 12.5074C1413.86 12.5074 1413.33 12.9668 1411.19 19.4748C1408.53 27.3609 1406.22 30.7297 1402.13 32.4907C1398.93 33.8689 1398.21 33.8689 1393.77 32.8735C1391.1 32.261 1386.12 30.5766 1382.92 29.0453C1375.28 25.6765 1370.83 25.5233 1368.34 28.5859C1367.27 29.8109 1365.67 30.8828 1364.96 30.8828C1363.36 30.8828 1359.09 26.2124 1356.43 21.6951L1354.83 19.0154L1353.58 21.3123C1352.87 22.6139 1351.45 24.3749 1350.56 25.3702C1348.96 27.1312 1348.96 27.1312 1343.62 25.753C1338.82 24.528 1337.93 24.528 1336.51 25.5233C1334.02 27.2078 1334.38 31.4188 1337.4 36.1658C1338.82 38.4627 1339.36 40.6831 1338.82 41.1425C1335.98 43.2097 1325.31 48.4926 1323.89 48.4926C1319.8 48.4926 1316.06 34.5579 1318.73 28.5859C1319.8 26.289 1319.8 24.1452 1319.08 23.8389C1315.35 22.2311 1267.69 15.7997 1224.48 11.1292C1160.11 4.00876 1112.81 0.793058 1071.56 0.716493C1042.58 0.639929 1031.73 1.32901 1024.62 3.54937C1021.77 4.46815 1021.59 4.85097 1024.08 8.90888C1025.51 11.2824 1029.6 14.8809 1032.97 16.8716C1040.26 21.3123 1044.18 26.2124 1046.49 33.9454C1047.91 38.9987 1047.73 40.0706 1044.53 42.98C1041.15 46.0426 1037.42 47.0379 1035.11 45.4301C1033.33 44.205 1028.71 44.5113 1026.04 46.0426C1023.9 47.191 1023.73 47.0379 1023.55 44.5113C1023.55 40.7596 1018.93 30.5766 1016.26 28.4328C1015.19 27.4374 1010.75 25.1405 1006.66 23.2264C997.765 19.2451 994.031 15.034 990.83 5.76974C988.519 -1.42731 986.207 -1.73357 986.029 5.15722C985.852 7.76041 985.318 11.7418 984.607 14.0387L983.362 18.2497L981.05 12.3543C979.628 9.06201 978.027 6.38225 977.316 6.38225C976.249 6.38225 953.311 17.5606 947.62 20.8529C947.265 21.0826 944.064 19.9341 940.33 18.3263C933.217 15.1106 919.881 12.2011 915.257 12.8902C908.856 13.7324 898.72 19.3982 887.518 28.5859C874.003 39.5346 871.336 41.0659 866.179 40.6065C862.445 40.3768 862.445 40.6065 862.978 49.1817C863.512 57.6038 863.334 57.9101 860.845 55.6131C859.422 54.235 857.822 53.0865 857.288 53.0865C856.755 53.0865 853.91 54.7709 850.887 56.9147C847.864 58.982 844.307 60.7429 843.063 60.7429C841.818 60.7429 840.395 59.4413 839.684 57.6804C838.439 54.235 836.661 54.0053 828.304 56.1491C820.302 58.2929 815.679 63.1164 814.256 70.6197L813.189 76.7449L808.921 71.6151C800.92 62.1977 799.319 58.5226 801.453 54.0053C803.231 50.3302 803.053 49.7942 800.03 48.8755C795.052 47.191 789.006 47.4973 786.872 49.488C785.449 50.7896 785.805 52.0146 788.65 54.924C790.784 56.9147 792.384 58.9054 792.384 59.2882C792.384 60.8961 781.893 59.8242 773.358 57.2975C768.201 55.8428 761.977 54.6178 759.488 54.6178C753.975 54.6178 749.174 57.6804 745.084 63.7289C742.417 67.6337 742.417 68.0165 746.151 73.1464C750.597 79.1184 750.063 80.6497 743.484 80.6497C732.815 80.6497 728.903 77.8168 724.102 66.8681C719.656 57.0678 720.19 54.4647 727.48 49.8708C730.859 47.727 733.17 45.6598 732.815 45.4301C731.748 44.6644 716.989 45.8895 709.698 47.4207C701.696 49.0286 691.383 53.6224 683.915 58.9054C678.224 62.9633 678.047 63.2696 681.069 64.1883C683.915 65.1837 683.915 65.3368 680.18 68.5525C669.333 77.7402 653.507 85.0904 600.34 105.533C579.357 113.649 559.263 121.612 555.707 123.219C541.481 129.727 525.3 139.221 518.72 144.811C507.696 154.305 507.518 154.687 513.386 167.627L518.543 179.035L511.252 186.308C502.183 195.343 500.049 196.415 501.472 191.285C502.005 189.218 503.25 180.413 504.317 171.761C505.384 163.109 506.451 153.845 506.984 151.089C507.34 148.333 508.229 142.667 508.94 138.532L510.185 130.952L502.361 131.488C460.218 134.398 378.065 139.068 345.169 140.446C280.798 142.973 235.81 141.748 217.85 136.924C212.694 135.47 210.915 134.321 208.604 130.646C204.87 125.134 204.692 110.663 208.07 101.858C209.671 97.7235 209.671 96.0391 208.426 96.1922C205.403 96.575 200.068 101.935 198.112 106.605C194.556 114.721 192.6 117.018 188.688 117.018C185.665 117.018 185.132 116.405 184.598 112.807C184.243 110.51 184.954 106.069 186.021 103.006C187.088 99.8673 187.799 97.1876 187.266 97.0344C186.91 96.8047 184.243 96.575 181.397 96.4985C176.241 96.3453 176.241 96.4219 176.419 100.556C176.419 102.853 177.308 108.366 178.552 112.807C179.619 117.247 181.042 129.115 181.753 139.145C182.82 155.683 182.642 157.444 180.153 156.984C178.552 156.755 174.107 156.142 170.017 155.683L162.726 154.84L163.082 146.801C163.26 142.361 162.904 138.609 162.371 138.379C162.015 138.149 159.881 142.973 157.57 148.945C149.923 170.613 141.922 180.107 133.742 177.197C132.675 176.814 127.34 175.743 122.006 174.747C113.293 173.292 107.78 172.986 72.2165 172.527C50.1669 172.221 30.7846 171.685 29.0064 171.378C23.1384 170.306 26.517 160.736 35.7636 151.931C38.253 149.711 40.2091 147.72 40.2091 147.567C40.2091 147.414 38.253 147.261 35.9414 147.261C33.6297 147.261 30.6068 146.725 29.3621 145.959C27.2283 144.887 26.6948 145.27 25.8057 149.481C25.0944 152.926 23.6719 154.687 20.6489 156.066C17.8038 157.367 16.0256 159.434 15.1365 162.344C12.8249 169.617 5.00085 177.657 -3.35665 181.485L-11.0029 184.854L-29.1404 184.624L-47.1002 184.394L-52.9682 187.151C-64.8821 192.663 -63.993 187.533 -70.9279 291.584C-74.4843 343.801 -78.3963 403.062 -79.8189 423.275C-81.2414 443.488 -85.3313 501.371 -88.7099 551.903C-92.0884 602.436 -96.1783 661.39 -97.6008 682.828C-101.335 737.725 -107.025 825.774 -109.159 861.989C-112.004 912.598 -113.071 926.686 -113.96 926.686C-116.272 926.686 -125.163 924.235 -125.163 923.623C-125.163 923.164 -126.052 922.857 -126.941 922.857C-129.253 922.857 -127.652 925.92 -123.385 930.284C-121.073 932.581 -118.761 933.653 -115.383 934.036C-106.67 934.954 -105.603 933.653 -104.358 919.182C-103.469 909.229 -102.58 905.783 -100.802 905.094C-97.0674 903.793 -95.467 905.324 -94.0444 911.602C-92.9775 915.89 -91.9106 917.345 -88.1764 918.876C-84.0866 920.714 -83.9087 921.173 -84.7978 926.686C-86.7538 937.251 -96.8895 944.984 -110.582 946.286C-118.228 946.975 -119.295 947.205 -114.671 947.281C-112.182 947.358 -106.847 948.813 -101.868 950.803C-89.9546 955.55 -87.9986 955.014 -83.3753 945.444C-81.0636 940.773 -78.752 945.75 -77.3294 958.689C-76.2625 967.647 -75.0178 972.165 -73.2396 973.773C-70.5723 975.84 -70.3945 975.916 -68.4385 974.462Z" fill="url(#paint0_linear)"/>
<defs>
<linearGradient id="paint0_linear" x1="938.5" y1="0.174927" x2="938.5" y2="975.454" gradientUnits="userSpaceOnUse">
<stop stop-color="#07172E"/>
<stop offset="1" stop-color="#04B7A4"/>
</linearGradient>
</defs>
</svg>
