<svg width="768" height="169" viewBox="0 0 768 169" fill="none" xmlns="http://www.w3.org/2000/svg">
<path d="M-173.559 0.553902C-173.062 0.685968 -170.911 1.37271 -168.759 2.05947C-164.621 3.36693 -162.634 3.63106 -160.482 3.16883C-159.903 3.03676 -159.406 2.74621 -159.406 2.5085C-159.406 1.95381 -155.847 1.26707 -153.116 1.26707C-150.384 1.26707 -147.57 1.76891 -143.515 2.95751C-137.39 4.72722 -133.997 5.09701 -130.603 4.33101C-129.279 4.04047 -129.114 3.82917 -129.445 3.20844C-129.776 2.58773 -129.528 2.38963 -128.286 2.17833C-126.879 1.9406 -126.134 1.9142 -121.085 1.99343C-115.871 2.08588 -115.292 2.05947 -113.305 1.78213L-111.236 1.46517L-111.733 1.86137C-112.809 2.73301 -112.974 3.5122 -112.312 4.0933C-111.402 4.89891 -110.822 4.97815 -108.753 4.52912C-106.684 4.08008 -103.87 3.84237 -99.1522 3.7103C-95.6761 3.61785 -92.6137 3.18204 -91.2066 2.53491C-90.379 2.1387 -89.4686 2.41604 -87.4822 3.64427C-86.489 4.26498 -85.2475 4.96494 -84.8337 5.18945L-83.9233 5.62527H-76.3087C-58.1829 5.62527 -35.7532 6.25919 41.7161 8.99298C56.9451 9.52124 72.7534 10.0627 76.8919 10.1684C80.9475 10.2872 85.1689 10.4193 86.1621 10.4457C87.6514 10.4985 88.0656 10.4589 88.0656 10.2476C88.0656 10.1023 88.2303 9.98349 88.396 9.98349C88.6446 9.98349 91.5413 10.0759 94.8523 10.1816C103.046 10.4589 119.02 10.8155 145.174 11.3042C208.987 12.4796 234.976 13.404 259.061 15.3322L269.323 16.151L271.476 15.385C274.372 14.3813 280 13.5361 285.959 13.2191C288.36 13.087 290.925 12.9286 291.505 12.8493C293.16 12.638 293.409 12.8097 292.581 13.4304C291.505 14.17 291.422 15.5435 292.416 15.9661C293.077 16.2435 293.823 16.2963 298.292 16.3491C301.271 16.3887 303.837 16.4944 304.582 16.6132C305.244 16.7189 306.155 17.2075 306.652 17.6962C307.81 19.0697 310.127 19.5715 318.156 20.2187C319.728 20.3507 322.543 20.5752 324.281 20.7073C343.069 22.213 397.115 21.4073 441.891 18.9376C450.499 18.4622 465.811 17.3528 466.638 17.1283C467.88 16.8245 469.619 17.0094 471.687 17.6434C476.405 19.1225 481.536 19.6772 491.965 19.8225C500.159 19.9413 502.807 20.0734 505.621 20.5488C508.601 21.0507 509.428 21.0507 508.849 20.5488C508.271 20.0866 508.352 20.0866 511.498 20.3507C516.878 20.7998 530.948 20.5752 564.386 19.5055C584.084 18.8716 598.651 18.6207 605.107 18.7923C611.563 18.9772 612.391 19.0697 611.066 19.5319C610.238 19.8225 610.321 19.9413 611.48 20.2187C612.225 20.4036 613.797 20.6281 614.873 20.7073C618.267 20.945 619.922 20.562 623.646 18.6471C625.468 17.6962 628.033 16.6529 629.192 16.3227L631.427 15.7284L631.923 17.3792C632.916 20.5356 637.799 23.4146 644.338 24.7617L645.911 25.0787V24.5241C645.911 24.2335 646.242 23.9826 646.655 23.9826C647.152 23.9826 652.449 25.1844 658.574 26.6504C665.113 28.2351 671.319 29.5822 673.72 29.9255L677.776 30.5198L678.024 29.0143L678.272 27.4956L680.921 28.1426C682.41 28.4993 685.141 28.9748 687.128 29.1991C690.604 29.5822 691.101 29.5955 701.032 29.6351L711.379 29.6879L715.683 29.1597C718.083 28.8823 723.297 28.1823 727.436 27.6277C735.713 26.5052 744.816 25.6994 750.528 25.607C755.411 25.5145 760.956 25.8448 765.26 26.4655C766.998 26.7164 768.653 26.9013 768.818 26.8616C769.067 26.8352 770.722 25.7391 772.625 24.4317C774.529 23.1373 776.93 21.4469 778.089 20.6809C779.165 19.9149 780.323 19.0961 780.571 18.8584C780.82 18.6339 781.317 18.4358 781.73 18.4358C783.965 18.4358 784.461 20.4696 787.441 42.0097C792.904 81.3129 792.904 114.026 787.359 133.07C785.703 139.026 781.73 146.329 779.082 148.575C778.667 148.931 778.337 149.948 778.337 150.846C778.337 151.744 778.171 152.484 777.923 152.484C777.757 152.484 776.598 152.418 775.44 152.325C773.867 152.206 773.123 152.206 772.378 152.325C770.888 152.563 768.818 152.523 767.163 152.22C765.26 151.876 764.267 151.995 764.267 152.563C764.267 153.065 765.508 153.131 769.729 152.88C772.625 152.695 772.874 152.761 771.302 153.223C770.639 153.435 770.06 153.804 770.06 154.042C770.06 154.597 772.461 156.472 773.371 156.617C773.702 156.683 774.447 156.419 774.943 156.023C777.095 154.465 779.33 153.514 781.978 153.038C785.372 152.457 787.689 152.51 786.945 153.17C784.627 155.217 781.896 156.076 775.109 156.921C772.461 157.251 769.398 157.766 768.322 158.07C766.502 158.585 766.336 158.598 766.087 158.295C765.922 158.11 766.17 157.674 766.749 157.304C767.659 156.683 767.577 156.578 765.094 155.548C763.604 154.94 761.536 154.28 760.542 154.095L758.638 153.738L756.817 154.003C753.755 154.451 753.341 154.716 752.597 156.736C752.265 157.846 751.438 158.849 750.858 159.048C750.031 159.325 747.878 159.536 741.092 159.985C736.291 160.302 725.532 161.028 717.089 161.596C697.474 162.917 692.757 163.208 683.155 163.696C665.36 164.594 654.684 164.898 640.034 164.898H629.937L630.351 165.756L630.847 166.602L626.874 166.285C624.722 166.113 618.929 165.783 614.128 165.572C609.328 165.36 603.617 165.03 601.548 164.845L597.823 164.515L596.995 164.845C596.002 165.294 593.767 167.473 593.767 168.094C593.767 168.371 593.354 168.596 592.94 168.596C592.444 168.596 592.112 168.543 592.112 168.464C592.112 168.398 590.623 168.16 588.801 167.949C581.353 167.09 562.731 166.549 543.197 166.641L531.031 166.694L530.7 164.079C530.534 162.64 530.038 161.425 529.707 161.372C528.631 161.2 526.313 161.544 525.32 162.045C524.741 162.323 523.665 163.313 523.003 164.264C521.595 166.126 520.934 166.483 518.45 166.483C516.381 166.483 516.133 166.404 515.14 165.281C513.898 163.921 512.822 163.34 510.919 163.036C509.428 162.798 509.098 162.798 507.029 162.97C505.787 163.075 503.469 163.366 501.98 163.63C498.42 164.211 496.352 164.238 495.193 163.709C494.696 163.498 493.952 163.313 493.62 163.313C492.875 163.313 490.889 164.119 489.647 164.898L488.903 165.36L488.324 164.964C487.992 164.74 487.331 164.436 486.916 164.264C486.172 163.96 486.172 163.96 483.688 164.198C481.454 164.409 481.04 164.409 480.378 164.238C479.219 163.947 479.385 163.221 480.791 162.402C481.454 162.006 481.702 161.623 481.454 161.544C480.13 161.187 475.164 160.276 474.502 160.276C472.598 160.276 470.859 162.679 472.101 163.709C472.598 164.106 472.598 164.475 472.267 164.528C470.529 164.806 448.347 165.915 428.235 166.721C398.273 167.949 376.258 168.504 357.056 168.517C343.565 168.53 338.517 168.411 335.206 168.028C333.881 167.87 333.798 167.803 334.957 167.103C335.619 166.694 337.524 166.073 339.096 165.73C342.49 164.964 344.31 164.119 345.386 162.785C346.048 161.913 345.965 161.728 344.476 161.227C342.903 160.698 341.165 160.527 340.089 160.804C339.261 161.015 337.109 160.962 335.868 160.698C334.874 160.5 334.792 160.527 334.709 160.962C334.709 161.61 332.558 163.366 331.316 163.736C330.819 163.907 328.75 164.304 326.846 164.634C322.708 165.321 320.97 166.047 319.48 167.645C318.404 168.886 317.328 168.939 317.245 167.751C317.163 167.302 316.914 166.615 316.584 166.219L316.004 165.492L314.928 166.509C314.266 167.077 313.521 167.539 313.19 167.539C312.694 167.539 302.016 165.611 299.368 165.043C299.202 165.004 297.713 165.202 295.974 165.479C292.664 166.034 286.456 166.536 284.304 166.417C281.325 166.272 276.607 165.294 271.393 163.709C265.102 161.821 263.861 161.557 261.461 161.636C259.723 161.676 259.723 161.636 259.971 160.157C260.219 158.704 260.136 158.651 258.978 159.048C258.315 159.285 257.571 159.483 257.322 159.483C257.075 159.483 255.75 159.193 254.343 158.823C252.936 158.466 251.28 158.163 250.701 158.163C250.122 158.163 249.46 158.387 249.128 158.691C248.549 159.285 247.722 159.325 243.832 158.955C240.108 158.585 237.955 157.753 237.293 156.459L236.797 155.402L234.81 156.287C231.086 157.912 230.34 158.546 231.333 159.325C232.162 159.959 232.079 160.051 230.672 160.21C228.354 160.5 225.54 160.447 224.547 160.104C223.885 159.879 224.051 159.668 225.374 159.166C226.367 158.823 227.113 158.48 227.113 158.414C227.113 158.136 222.23 158.321 218.257 158.757C215.857 159.008 212.96 159.219 211.801 159.219C209.236 159.219 207.001 158.691 205.097 157.647C203.855 156.974 203.855 156.908 205.593 156.023C207.662 154.993 207.415 154.729 204.352 154.729C199.386 154.729 197.565 155.218 195.331 157.106C193.262 158.797 193.51 159.245 196.903 160.038C198.476 160.408 199.551 160.764 199.386 160.804C198.889 160.936 192.02 160.725 188.626 160.46C184.902 160.183 180.102 159.391 176.626 158.48C173.977 157.78 173.894 157.727 175.301 157.568C176.626 157.397 176.626 157.37 174.887 156.816C169.838 155.231 162.473 153.963 137.725 150.437C127.959 149.037 118.606 147.663 116.951 147.386C110.329 146.263 102.798 144.626 99.7354 143.662C94.6037 142.024 94.5209 141.958 97.2519 139.726L99.6526 137.758L96.2588 136.504C92.0384 134.945 91.0452 134.76 91.707 135.645C91.9556 136.002 92.5345 137.52 93.0316 139.013C93.5277 140.505 94.0248 142.103 94.2723 142.579C94.438 143.054 94.8523 144.031 95.1827 144.744L95.7626 146.052L92.1212 145.96C72.5049 145.458 34.2671 144.652 18.9553 144.414C-11.0061 143.979 -31.946 144.19 -40.3054 145.022C-42.7056 145.273 -43.5332 145.471 -44.6092 146.105C-46.3473 147.056 -46.43 149.552 -44.8575 151.071C-44.1126 151.784 -44.1126 152.074 -44.692 152.048C-46.099 151.982 -48.582 151.057 -49.4925 150.252C-51.1477 148.852 -52.0581 148.456 -53.879 148.456C-55.2861 148.456 -55.5344 148.561 -55.7827 149.182C-55.9482 149.578 -55.6171 150.344 -55.1206 150.873C-54.624 151.414 -54.2929 151.876 -54.5412 151.903C-54.7067 151.942 -55.9482 151.982 -57.2724 151.995C-59.6727 152.021 -59.6727 152.008 -59.5899 151.295C-59.5899 150.899 -59.1761 149.948 -58.5967 149.182C-58.1001 148.416 -57.4379 146.369 -57.1069 144.639C-56.6104 141.786 -56.6931 141.483 -57.8519 141.562C-58.5968 141.601 -60.6659 141.707 -62.5695 141.786L-65.963 141.931L-65.7974 143.318C-65.7146 144.084 -65.8801 144.731 -66.1285 144.771C-66.294 144.811 -67.2872 143.979 -68.3632 142.949C-71.9221 139.211 -75.6466 137.573 -79.4539 138.075C-79.9505 138.141 -82.4335 138.326 -84.9165 138.498C-88.972 138.749 -91.5377 138.802 -108.091 138.881C-118.354 138.934 -127.376 139.026 -128.203 139.079C-130.934 139.264 -129.362 140.915 -125.058 142.433C-123.899 142.816 -122.989 143.16 -122.989 143.186C-122.989 143.213 -123.899 143.239 -124.975 143.239C-126.051 143.239 -127.458 143.332 -128.038 143.463C-129.031 143.649 -129.279 143.582 -129.693 142.856C-130.024 142.262 -130.686 141.958 -132.093 141.72C-133.418 141.496 -134.246 141.139 -134.659 140.637C-135.735 139.383 -139.376 137.996 -143.266 137.336L-146.826 136.755L-155.268 136.794L-163.627 136.834L-166.358 136.358C-171.904 135.408 -171.49 136.292 -174.718 118.344C-176.373 109.338 -178.194 99.1154 -178.857 95.6288C-179.518 92.1424 -181.422 82.1581 -182.994 73.4416C-184.567 64.7253 -186.471 54.556 -187.133 50.8583C-188.87 41.389 -191.52 26.2013 -192.513 19.9545C-193.837 11.2249 -194.334 8.79487 -194.748 8.79487C-195.823 8.79487 -199.961 9.21749 -199.961 9.32315C-199.961 9.40238 -200.376 9.45522 -200.79 9.45522C-201.865 9.45522 -201.12 8.92694 -199.134 8.17415C-198.058 7.77796 -196.982 7.59308 -195.41 7.52705C-191.354 7.36856 -190.858 7.59308 -190.278 10.0891C-189.864 11.806 -189.45 12.4003 -188.623 12.5192C-186.885 12.7437 -186.139 12.4796 -185.478 11.3966C-184.981 10.657 -184.484 10.4061 -182.747 10.142C-180.843 9.825 -180.76 9.74577 -181.173 8.79487C-182.084 6.97234 -186.802 5.63848 -193.175 5.41398C-196.734 5.2951 -197.23 5.25548 -195.078 5.24227C-193.919 5.22908 -191.437 4.97815 -189.119 4.63476C-183.574 3.81595 -182.664 3.9084 -180.512 5.55924C-179.436 6.36485 -178.36 5.50641 -177.698 3.27448C-177.201 1.7293 -176.622 0.950102 -175.794 0.672763C-174.552 0.316184 -174.47 0.302973 -173.559 0.553902Z" fill="#75E6DA"/>
</svg>
