<svg width="1920" height="899" viewBox="0 0 1920 899" fill="none" xmlns="http://www.w3.org/2000/svg">
<path d="M-67.9871 920.58C-66.9121 919.856 -62.2537 916.094 -57.5955 912.332C-48.6372 905.17 -44.3372 903.723 -39.6787 906.255C-38.4246 906.979 -37.3496 908.57 -37.3496 909.873C-37.3496 912.911 -29.6455 916.673 -23.7329 916.673C-17.8204 916.673 -11.7288 913.924 -2.94958 907.413C10.3087 897.719 17.6545 895.693 25.0004 899.889C27.8671 901.481 28.2253 902.638 27.5087 906.038C26.792 909.439 27.3296 910.524 30.0171 911.681C33.0629 912.983 34.6754 913.128 45.6045 912.694C56.8921 912.188 58.1462 912.332 62.4462 913.852L66.9254 915.588L65.8503 913.417C63.5212 908.643 63.1628 904.375 64.5962 901.191C66.567 896.778 67.8212 896.344 72.3004 898.804C76.7795 901.264 82.8712 902.566 93.0837 903.289C100.609 903.796 107.238 906.183 110.284 909.728C112.075 911.898 114.046 910.379 118.346 903.651C120.496 900.251 123.184 896.417 124.08 895.187L126.05 892.8H142.534C181.771 892.8 230.325 889.327 398.025 874.352C430.992 871.458 465.213 868.492 474.171 867.913C482.95 867.262 492.088 866.539 494.238 866.394C497.463 866.105 498.359 866.322 498.359 867.479C498.359 868.275 498.717 868.926 499.075 868.926C499.613 868.926 505.884 868.42 513.05 867.841C530.788 866.322 565.367 864.368 621.984 861.692C760.121 855.253 816.38 850.189 868.517 839.627L890.734 835.142L895.392 839.338C901.663 844.836 913.846 849.466 926.746 851.202C931.942 851.925 937.496 852.793 938.75 853.227C942.334 854.385 942.871 853.445 941.079 850.044C938.75 845.993 938.571 838.469 940.721 836.154C942.155 834.635 943.767 834.346 953.442 834.056C959.892 833.839 965.446 833.261 967.059 832.61C968.492 832.031 970.463 829.354 971.538 826.677C974.046 819.154 979.063 816.405 996.442 812.86C999.846 812.136 1005.94 810.906 1009.7 810.183C1050.37 801.936 1167.37 806.349 1264.3 819.877C1282.93 822.481 1316.08 828.558 1317.87 829.788C1320.55 831.452 1324.32 830.439 1328.8 826.967C1339.01 818.864 1350.12 815.826 1372.69 815.03C1390.43 814.379 1396.16 813.655 1402.25 811.051C1408.7 808.302 1410.5 808.302 1409.24 811.051C1407.99 813.583 1408.17 813.583 1414.98 812.136C1426.62 809.677 1457.08 810.906 1529.46 816.766C1572.1 820.239 1603.64 821.613 1617.61 820.673C1631.59 819.66 1633.38 819.154 1630.51 816.622C1628.72 815.03 1628.9 814.379 1631.41 812.86C1633.02 811.847 1636.43 810.617 1638.75 810.183C1646.1 808.881 1649.68 810.979 1657.75 821.469C1661.69 826.677 1667.24 832.393 1669.75 834.201L1674.59 837.457L1675.66 828.414C1677.81 811.123 1688.38 795.352 1702.54 787.973L1705.94 786.237V789.276C1705.94 790.867 1706.66 792.242 1707.55 792.242C1708.63 792.242 1720.1 785.658 1733.35 777.628C1747.51 768.947 1760.95 761.568 1766.14 759.687L1774.92 756.432L1775.46 764.679L1776 772.998L1781.73 769.453C1784.95 767.5 1790.87 764.896 1795.17 763.666C1802.69 761.568 1803.77 761.496 1825.27 761.279L1847.66 760.989L1856.98 763.883C1862.18 765.402 1873.46 769.236 1882.42 772.275C1900.34 778.424 1920.05 782.837 1932.41 783.343C1942.98 783.85 1954.98 782.041 1964.3 778.641C1968.06 777.267 1971.65 776.254 1972 776.471C1972.54 776.615 1976.13 782.62 1980.25 789.782C1984.37 796.872 1989.56 806.132 1992.07 810.328C1994.4 814.524 1996.91 819.009 1997.45 820.311C1997.98 821.541 1999.06 822.626 1999.95 822.626C2004.79 822.626 2005.87 811.485 2012.32 693.492C2024.14 478.198 2024.14 299.002 2012.14 194.682C2008.55 162.055 1999.95 122.049 1994.22 109.751C1993.33 107.798 1992.61 102.227 1992.61 97.3077C1992.61 92.3883 1992.25 88.337 1991.71 88.337C1991.35 88.337 1988.85 88.6987 1986.34 89.2052C1982.93 89.8562 1981.32 89.8562 1979.71 89.2052C1976.48 87.903 1972 88.12 1968.42 89.7839C1964.3 91.6648 1962.15 91.0137 1962.15 87.903C1962.15 85.1539 1964.84 84.7922 1973.98 86.1667C1980.25 87.1795 1980.78 86.8178 1977.38 84.2858C1975.95 83.1283 1974.69 81.1027 1974.69 79.8005C1974.69 76.762 1979.89 66.4892 1981.86 65.6934C1982.58 65.3317 1984.19 66.7786 1985.26 68.9489C1989.92 77.4855 1994.76 82.6942 2000.49 85.2986C2007.84 88.4817 2012.85 88.1923 2011.24 84.5751C2006.23 73.3619 2000.31 68.6595 1985.62 64.0295C1979.89 62.2209 1973.26 59.3995 1970.93 57.7356C1966.99 54.9142 1966.63 54.8419 1966.09 56.5058C1965.73 57.5186 1966.27 59.9059 1967.53 61.9316C1969.5 65.3317 1969.32 65.9105 1963.94 71.5533C1960.72 74.8811 1956.24 78.4983 1954.09 79.5111L1949.97 81.4644L1946.03 80.0175C1939.4 77.5578 1938.5 76.1109 1936.89 65.0423C1936.17 58.9655 1934.38 53.4673 1933.13 52.3822C1931.33 50.863 1926.68 49.7055 1911.98 47.2458C1901.59 45.5095 1878.3 41.5306 1860.03 38.4198C1817.56 31.1855 1807.35 29.5939 1786.57 26.9172C1748.05 21.9978 1724.93 20.3339 1693.22 20.3339H1671.36L1672.26 15.6316L1673.33 11.0016L1664.73 12.7378C1660.08 13.6783 1647.53 15.4869 1637.14 16.6444C1626.75 17.8019 1614.39 19.6105 1609.91 20.6233L1601.85 22.4319L1600.05 20.6233C1597.9 18.1636 1593.07 6.22687 1593.07 2.82671C1593.07 1.30749 1592.17 0.0776503 1591.28 0.0776503C1590.2 0.0776503 1589.48 0.367025 1589.48 0.801088C1589.48 1.16281 1586.26 2.46499 1582.32 3.62249C1566.19 8.32484 1525.88 11.2909 1483.6 10.7845L1457.26 10.4952L1456.54 24.8192C1456.18 32.7047 1455.11 39.3603 1454.39 39.6497C1452.06 40.5902 1447.05 38.7092 1444.9 35.9602C1443.64 34.4409 1441.31 29.0152 1439.88 23.8064C1436.83 13.6059 1435.4 11.6527 1430.03 11.6527C1425.55 11.6527 1425.01 12.0867 1422.86 18.2359C1420.17 25.6873 1417.84 28.8705 1413.72 30.5344C1410.5 31.8366 1409.78 31.8366 1405.3 30.8961C1402.61 30.3173 1397.6 28.7258 1394.37 27.2789C1386.67 24.0958 1382.19 23.9511 1379.68 26.8448C1378.6 28.0023 1376.99 29.0152 1376.28 29.0152C1374.66 29.0152 1370.36 24.6022 1367.68 20.3339L1366.06 17.8019L1364.81 19.9722C1364.09 21.202 1362.66 22.8659 1361.76 23.8064C1360.15 25.4703 1360.15 25.4703 1354.78 24.1681C1349.94 23.0106 1349.04 23.0106 1347.61 23.9511C1345.1 25.5427 1345.46 29.5216 1348.5 34.0069C1349.94 36.1772 1350.48 38.2752 1349.94 38.7092C1347.07 40.6625 1336.32 45.6542 1334.89 45.6542C1330.77 45.6542 1327 32.4877 1329.69 26.8448C1330.77 24.6745 1330.77 22.6489 1330.05 22.3595C1326.29 20.8403 1278.27 14.7634 1234.73 10.3505C1169.88 3.62249 1122.22 0.584057 1080.65 0.511713C1051.45 0.439369 1040.52 1.09046 1033.35 3.18843C1030.48 4.05656 1030.3 4.41828 1032.81 8.25249C1034.25 10.4952 1038.37 13.8953 1041.77 15.7762C1049.12 19.9722 1053.06 24.6022 1055.39 31.9089C1056.82 36.6836 1056.64 37.6964 1053.42 40.4455C1050.01 43.3392 1046.25 44.2797 1043.92 42.7605C1042.13 41.603 1037.47 41.8923 1034.78 43.3392C1032.63 44.4244 1032.45 44.2797 1032.28 41.8923C1032.28 38.3475 1027.62 28.7258 1024.93 26.7002C1023.85 25.7597 1019.38 23.5894 1015.25 21.7808C1006.3 18.0189 1002.53 14.04 999.309 5.2864C996.979 -1.51391 994.65 -1.80329 994.471 4.70765C994.292 7.16734 993.755 10.9292 993.038 13.0995L991.784 17.0784L989.454 11.508C988.021 8.39718 986.409 5.86515 985.692 5.86515C984.617 5.86515 961.505 16.4273 955.771 19.5381C955.413 19.7552 952.188 18.67 948.425 17.1508C941.259 14.1123 927.821 11.3633 923.163 12.0144C916.713 12.8102 906.5 18.1636 895.213 26.8448C881.596 37.19 878.909 38.6369 873.713 38.2028C869.95 37.9858 869.95 38.2028 870.488 46.3053C871.025 54.2631 870.846 54.5525 868.338 52.3822C866.905 51.08 865.292 49.9948 864.755 49.9948C864.217 49.9948 861.35 51.5864 858.305 53.612C855.259 55.5653 851.675 57.2292 850.421 57.2292C849.167 57.2292 847.734 55.9994 847.017 54.3355C845.763 51.08 843.971 50.863 835.55 52.8886C827.488 54.9142 822.83 59.4719 821.396 66.5616L820.321 72.3491L816.021 67.502C807.959 58.6037 806.346 55.1312 808.496 50.863C810.288 47.3905 810.109 46.8841 807.063 46.0159C802.046 44.4244 795.955 44.7137 793.805 46.5947C792.371 47.8245 792.729 48.982 795.596 51.7311C797.746 53.612 799.359 55.493 799.359 55.8547C799.359 57.3739 788.788 56.3611 780.188 53.9737C774.992 52.5992 768.721 51.4417 766.213 51.4417C760.659 51.4417 755.821 54.3355 751.7 60.0506C749.013 63.7402 749.013 64.1019 752.775 68.9489C757.255 74.5917 756.717 76.0386 750.088 76.0386C739.338 76.0386 735.396 73.3619 730.559 63.0167C726.08 53.7567 726.617 51.297 733.963 46.9564C737.367 44.9308 739.696 42.9775 739.338 42.7605C738.263 42.037 723.392 43.1945 716.046 44.6414C707.984 46.1606 697.592 50.5012 690.067 55.493C684.334 59.3272 684.155 59.6166 687.2 60.4847C690.067 61.4252 690.067 61.5698 686.305 64.6083C675.375 73.2895 659.43 80.2345 605.859 99.5503C584.717 107.219 564.471 114.743 560.888 116.262C546.555 122.411 530.25 131.382 523.621 136.663C512.513 145.633 512.334 145.995 518.246 158.221L523.442 169L516.096 175.873C506.959 184.41 504.809 185.422 506.242 180.575C506.78 178.622 508.034 170.302 509.109 162.128C510.184 153.953 511.259 145.199 511.796 142.595C512.155 139.99 513.05 134.637 513.767 130.73L515.021 123.568L507.138 124.075C464.675 126.824 381.9 131.237 348.755 132.539C283.896 134.926 238.567 133.769 220.471 129.211C215.275 127.837 213.484 126.752 211.155 123.279C207.392 118.07 207.213 104.397 210.617 96.0778C212.229 92.1712 212.229 90.5797 210.975 90.7244C207.93 91.0861 202.555 96.1502 200.584 100.563C197 108.232 195.03 110.402 191.088 110.402C188.042 110.402 187.505 109.823 186.967 106.423C186.609 104.253 187.325 100.057 188.4 97.163C189.475 94.1969 190.192 91.6648 189.655 91.5202C189.296 91.3031 186.609 91.0861 183.742 91.0137C178.546 90.8691 178.546 90.9414 178.725 94.848C178.725 97.0183 179.621 102.227 180.875 106.423C181.95 110.619 183.384 121.832 184.1 131.309C185.175 146.935 184.996 148.599 182.488 148.165C180.875 147.948 176.396 147.37 172.275 146.935L164.93 146.14L165.288 138.544C165.467 134.348 165.109 130.803 164.571 130.586C164.213 130.369 162.063 134.926 159.734 140.569C152.03 161.042 143.967 170.013 135.725 167.264C134.65 166.902 129.275 165.89 123.9 164.949C115.121 163.575 109.567 163.285 73.7338 162.851C51.5171 162.562 31.9879 162.055 30.1962 161.766C24.2837 160.753 27.6879 151.71 37.0045 143.391C39.5128 141.293 41.4838 139.412 41.4838 139.267C41.4838 139.122 39.5128 138.978 37.1837 138.978C34.8545 138.978 31.8087 138.471 30.5546 137.748C28.4045 136.735 27.8671 137.097 26.9712 141.076C26.2545 144.331 24.8212 145.995 21.7754 147.297C18.9087 148.527 17.1171 150.48 16.2212 153.229C13.8921 160.102 6.00867 167.698 -2.41211 171.315L-10.1163 174.498L-28.3914 174.281L-46.4871 174.064L-52.3997 176.669C-64.4038 181.877 -63.5081 177.03 -70.4954 275.346C-74.0789 324.684 -78.0205 380.678 -79.4539 399.777C-80.8872 418.876 -85.0081 473.568 -88.4121 521.314C-91.8162 569.061 -95.937 624.766 -97.3704 645.022C-101.133 696.893 -106.866 780.088 -109.016 814.307C-111.883 862.126 -112.958 875.437 -113.854 875.437C-116.183 875.437 -125.141 873.122 -125.141 872.543C-125.141 872.109 -126.037 871.82 -126.933 871.82C-129.262 871.82 -127.65 874.714 -123.35 878.837C-121.021 881.008 -118.691 882.02 -115.287 882.382C-106.508 883.25 -105.433 882.02 -104.179 868.347C-103.283 858.943 -102.387 855.687 -100.595 855.036C-96.833 853.806 -95.2205 855.253 -93.7871 861.185C-92.7122 865.237 -91.6372 866.611 -87.8745 868.058C-83.7537 869.794 -83.5747 870.228 -84.4705 875.437C-86.4412 885.42 -96.6538 892.727 -110.45 893.957C-118.154 894.608 -119.229 894.825 -114.571 894.898C-112.062 894.97 -106.687 896.344 -101.67 898.225C-89.6663 902.711 -87.6956 902.204 -83.0371 893.161C-80.708 888.748 -78.3787 893.451 -76.9456 905.677C-75.8704 914.141 -74.6162 918.409 -72.8247 919.928C-70.1372 921.882 -69.958 921.954 -67.9871 920.58Z" fill="#942E2E"/>
</svg>
