<svg width="821" height="200" viewBox="0 0 821 200" fill="none" xmlns="http://www.w3.org/2000/svg">
<path d="M957.272 216.549C956.779 216.379 954.645 215.495 952.51 214.611C948.404 212.929 946.433 212.589 944.298 213.184C943.723 213.354 943.23 213.728 943.23 214.033C943.23 214.747 939.699 215.631 936.99 215.631C934.279 215.631 931.487 214.985 927.464 213.456C921.387 211.178 918.021 210.703 914.654 211.688C913.34 212.062 913.176 212.334 913.504 213.133C913.833 213.931 913.586 214.186 912.354 214.458C910.958 214.764 910.219 214.798 905.21 214.696C900.037 214.577 899.462 214.611 897.491 214.968L895.439 215.376L895.931 214.866C896.999 213.745 897.163 212.742 896.506 211.994C895.603 210.958 895.028 210.856 892.975 211.433C890.922 212.011 888.13 212.317 883.449 212.487C880.001 212.606 876.962 213.167 875.566 213.999C874.745 214.509 873.842 214.152 871.871 212.572C870.886 211.773 869.654 210.873 869.243 210.584L868.34 210.023H860.785C842.802 210.023 820.548 209.207 743.688 205.689C728.578 205.01 712.894 204.313 708.788 204.177C704.764 204.024 700.576 203.854 699.591 203.82C698.113 203.752 697.702 203.803 697.702 204.075C697.702 204.262 697.539 204.415 697.374 204.415C697.128 204.415 694.254 204.296 690.969 204.16C682.839 203.803 666.99 203.344 641.042 202.716C577.73 201.203 551.946 200.014 528.05 197.532L517.868 196.479L515.733 197.464C512.859 198.756 507.275 199.844 501.363 200.251C498.981 200.421 496.436 200.625 495.86 200.727C494.218 200.999 493.972 200.778 494.793 199.98C495.86 199.028 495.943 197.261 494.957 196.717C494.301 196.36 493.561 196.292 489.127 196.224C486.171 196.173 483.626 196.037 482.886 195.884C482.229 195.748 481.326 195.119 480.833 194.491C479.684 192.723 477.384 192.077 469.419 191.245C467.859 191.075 465.067 190.786 463.342 190.616C444.702 188.679 391.08 189.715 346.656 192.893C338.115 193.505 322.924 194.932 322.103 195.221C320.871 195.612 319.146 195.374 317.094 194.559C312.412 192.655 307.322 191.942 296.975 191.755C288.845 191.602 286.218 191.432 283.426 190.82C280.47 190.174 279.649 190.174 280.223 190.82C280.798 191.415 280.716 191.415 277.596 191.075C272.258 190.497 258.298 190.786 225.123 192.162C205.58 192.978 191.127 193.301 184.722 193.08C178.316 192.842 177.495 192.723 178.81 192.128C179.631 191.755 179.548 191.602 178.399 191.245C177.66 191.007 176.1 190.718 175.032 190.616C171.665 190.31 170.023 190.803 166.328 193.267C164.521 194.491 161.976 195.833 160.826 196.258L158.608 197.023L158.116 194.898C157.131 190.837 152.286 187.132 145.798 185.399L144.239 184.991V185.705C144.239 186.079 143.91 186.402 143.5 186.402C143.007 186.402 137.752 184.855 131.675 182.969C125.187 180.93 119.029 179.196 116.647 178.754L112.624 177.99L112.377 179.927L112.131 181.881L109.503 181.049C108.025 180.59 105.316 179.978 103.345 179.689C99.8958 179.196 99.4035 179.179 89.5496 179.128L79.2846 179.06L75.0142 179.74C72.6334 180.097 67.4598 180.997 63.3539 181.711C55.1419 183.156 46.11 184.192 40.4432 184.311C35.5984 184.43 30.097 184.005 25.8267 183.207C24.1025 182.884 22.4605 182.646 22.2961 182.697C22.0495 182.731 20.4075 184.141 18.5189 185.824C16.6302 187.489 14.2485 189.664 13.0987 190.65C12.0311 191.636 10.8813 192.689 10.6357 192.995C10.3892 193.284 9.89594 193.539 9.48596 193.539C7.26855 193.539 6.77631 190.922 3.82013 163.205C-1.60004 112.631 -1.60004 70.5378 3.90137 46.0329C5.54431 38.3686 9.48596 28.9709 12.1133 26.0821C12.5244 25.6231 12.8522 24.3147 12.8522 23.159C12.8522 22.0035 13.0165 21.0519 13.2631 21.0519C13.4276 21.0519 14.5773 21.1369 15.7261 21.2559C17.2869 21.4088 18.0257 21.4088 18.7645 21.2559C20.2431 20.9498 22.2961 21.0009 23.938 21.3917C25.8267 21.8335 26.8121 21.6806 26.8121 20.9498C26.8121 20.3041 25.5801 20.2191 21.3929 20.5419C18.5189 20.7798 18.2723 20.6951 19.8321 20.1001C20.4897 19.8283 21.0641 19.3525 21.0641 19.0465C21.0641 18.3328 18.6823 15.9197 17.7791 15.7329C17.4513 15.6479 16.7115 15.9876 16.2193 16.4976C14.0841 18.5028 11.8668 19.7264 9.23932 20.338C5.87219 21.0859 3.57355 21.018 4.31232 20.1683C6.61194 17.5341 9.32153 16.4294 16.0549 15.3418C18.6823 14.9171 21.7207 14.2542 22.7883 13.8634C24.5947 13.2008 24.7591 13.1837 25.0057 13.5745C25.17 13.8124 24.9235 14.3734 24.3491 14.8492C23.4459 15.6479 23.5281 15.7839 25.9911 17.1094C27.4697 17.891 29.5217 18.7407 30.5071 18.9786L32.3966 19.4375L34.203 19.0975C37.2414 18.5199 37.6514 18.1799 38.3902 15.58C38.719 14.1524 39.54 12.8608 40.1154 12.6059C40.9364 12.249 43.0716 11.9772 49.805 11.3993C54.5676 10.9914 65.2425 10.057 73.6189 9.3262C93.0802 7.62677 97.7605 7.25282 107.287 6.62415C124.942 5.46864 135.534 5.07762 150.069 5.07762H160.087L159.676 3.97316L159.184 2.88557L163.125 3.29344C165.261 3.51424 171.009 3.93922 175.771 4.21106C180.534 4.48291 186.2 4.90764 188.253 5.14577L191.948 5.57051L192.77 5.14577C193.755 4.5679 195.972 1.76402 195.972 0.965103C195.972 0.608261 196.382 0.319336 196.793 0.319336C197.286 0.319336 197.614 0.387466 197.614 0.489319C197.614 0.57431 199.092 0.880112 200.899 1.15219C208.289 2.25665 226.765 2.95348 246.145 2.83453L258.216 2.76663L258.544 6.13129C258.709 7.9836 259.201 9.54698 259.53 9.61513C260.597 9.83592 262.897 9.39409 263.882 8.74831C264.457 8.39148 265.524 7.11705 266.181 5.8934C267.577 3.49741 268.234 3.03847 270.698 3.03847C272.751 3.03847 272.997 3.14032 273.982 4.58501C275.214 6.33522 276.282 7.08284 278.17 7.47388C279.649 7.77966 279.977 7.77966 282.03 7.55887C283.262 7.42282 285.561 7.04889 287.039 6.70915C290.57 5.96127 292.622 5.92734 293.772 6.60706C294.265 6.87914 295.004 7.11703 295.333 7.11703C296.072 7.11703 298.042 6.08023 299.274 5.07762L300.013 4.48291L300.588 4.99263C300.916 5.28157 301.573 5.67261 301.984 5.8934C302.723 6.28418 302.723 6.28416 305.187 5.97838C307.403 5.70654 307.814 5.70654 308.471 5.92734C309.621 6.30127 309.456 7.23599 308.061 8.28964C307.403 8.79936 307.158 9.29224 307.403 9.39409C308.717 9.85301 313.644 11.0256 314.301 11.0256C316.19 11.0256 317.915 7.93254 316.683 6.60706C316.19 6.09732 316.19 5.62155 316.518 5.55339C318.243 5.19656 340.25 3.76924 360.205 2.73242C389.931 1.15219 411.773 0.438278 430.824 0.421432C444.21 0.404327 449.218 0.55722 452.503 1.05009C453.817 1.25404 453.899 1.33904 452.75 2.23979C452.093 2.76662 450.203 3.56529 448.644 4.00711C445.276 4.99263 443.47 6.08023 442.402 7.79675C441.746 8.9183 441.828 9.15619 443.306 9.80197C444.866 10.4817 446.591 10.7027 447.658 10.3459C448.479 10.0738 450.614 10.142 451.846 10.4817C452.832 10.7367 452.914 10.7027 452.996 10.142C452.996 9.30908 455.13 7.04889 456.362 6.57312C456.856 6.35233 458.909 5.84235 460.797 5.4176C464.903 4.53395 466.627 3.59923 468.105 1.54297C469.172 -0.0543671 470.24 -0.122498 470.322 1.40694C470.404 1.98482 470.651 2.86847 470.979 3.3782L471.554 4.3129L472.622 3.00452C473.279 2.27374 474.017 1.67902 474.346 1.67902C474.838 1.67902 485.432 4.16002 488.059 4.89079C488.224 4.94183 489.701 4.68684 491.427 4.33C494.711 3.61633 500.87 2.97057 503.005 3.12346C505.961 3.3103 510.641 4.56789 515.815 6.60706C522.056 9.03725 523.287 9.37724 525.669 9.27515C527.393 9.22411 527.393 9.27515 527.146 11.1785C526.901 13.0477 526.983 13.1158 528.132 12.6059C528.789 12.3001 529.528 12.0451 529.775 12.0451C530.02 12.0451 531.335 12.419 532.731 12.8948C534.126 13.3537 535.769 13.7445 536.344 13.7445C536.918 13.7445 537.576 13.4556 537.905 13.0648C538.479 12.3 539.3 12.249 543.159 12.7248C546.854 13.2008 548.99 14.2713 549.647 15.9368L550.139 17.2962L552.11 16.1576C555.805 14.0674 556.545 13.2516 555.56 12.249C554.738 11.4333 554.82 11.3143 556.216 11.1106C558.516 10.7367 561.307 10.8046 562.293 11.2464C562.949 11.5354 562.785 11.8072 561.472 12.453C560.486 12.8948 559.747 13.3366 559.747 13.4216C559.747 13.7784 564.591 13.5406 568.533 12.9798C570.915 12.6569 573.789 12.3851 574.939 12.3851C577.484 12.3851 579.701 13.0648 581.59 14.4074C582.822 15.2739 582.822 15.3589 581.098 16.4976C579.045 17.8231 579.29 18.1628 582.329 18.1628C587.256 18.1628 589.063 17.5341 591.279 15.1039C593.332 12.9287 593.086 12.3511 589.72 11.3314C588.159 10.8556 587.092 10.3967 587.256 10.3459C587.749 10.1759 594.564 10.4477 597.932 10.7877C601.626 11.1446 606.389 12.164 609.837 13.3366C612.466 14.2374 612.548 14.3053 611.152 14.5092C609.837 14.7303 609.837 14.7642 611.563 15.4779C616.572 17.517 623.88 19.1486 648.432 23.6858C658.122 25.4873 667.401 27.2547 669.043 27.6115C675.613 29.0559 683.086 31.1633 686.124 32.4037C691.215 34.5111 691.298 34.5958 688.588 37.4678L686.206 39.9999L689.573 41.6143C693.76 43.6195 694.746 43.8577 694.089 42.719C693.843 42.2601 693.268 40.3059 692.775 38.3854C692.283 36.4652 691.79 34.409 691.544 33.7971C691.38 33.1853 690.969 31.928 690.641 31.0104L690.066 29.3278L693.678 29.4467C713.141 30.0925 751.078 31.1293 766.27 31.4351C795.996 31.9958 816.771 31.724 825.065 30.6533C827.446 30.3304 828.267 30.0757 829.335 29.2599C831.059 28.0362 831.141 24.8245 829.581 22.8703C828.842 21.9525 828.842 21.5788 829.417 21.6127C830.813 21.6977 833.276 22.8871 834.18 23.9237C835.822 25.7252 836.725 26.235 838.532 26.235C839.928 26.235 840.174 26.0989 840.421 25.3002C840.585 24.7905 840.256 23.8048 839.764 23.125C839.271 22.4285 838.942 21.8335 839.189 21.7996C839.353 21.7485 840.585 21.6977 841.899 21.6806C844.28 21.6467 844.28 21.6638 844.198 22.5814C844.198 23.0911 843.787 24.3147 843.213 25.3002C842.72 26.286 842.063 28.9199 841.734 31.1461C841.242 34.8168 841.324 35.2076 842.474 35.1058C843.213 35.0547 845.265 34.9187 847.154 34.8168L850.521 34.63L850.357 32.8456C850.275 31.8598 850.439 31.0272 850.685 30.9762C850.849 30.9254 851.835 31.9959 852.902 33.3214C856.433 38.1307 860.128 40.2377 863.906 39.592C864.399 39.5072 866.862 39.2691 869.326 39.0483C873.349 38.7254 875.895 38.6575 892.318 38.5554C902.5 38.4875 911.451 38.3686 912.272 38.3007C914.982 38.0625 913.422 35.9384 909.152 33.9842C908.002 33.4913 907.099 33.0495 907.099 33.0156C907.099 32.9816 908.002 32.9474 909.07 32.9474C910.137 32.9474 911.533 32.8285 912.108 32.6587C913.093 32.4206 913.34 32.5056 913.75 33.4403C914.079 34.205 914.736 34.5958 916.132 34.9018C917.446 35.1908 918.267 35.6495 918.677 36.2952C919.745 37.9097 923.358 39.6941 927.217 40.5438L930.749 41.2914L939.124 41.2406L947.418 41.1896L950.128 41.8014C955.63 43.0248 955.219 41.8864 958.422 64.9808C960.064 76.5705 961.87 89.7238 962.528 94.2103C963.185 98.6965 965.073 111.544 966.633 122.76C968.194 133.976 970.082 147.061 970.739 151.819C972.463 164.004 975.091 183.547 976.077 191.585C977.391 202.818 977.883 205.944 978.294 205.944C979.361 205.944 983.467 205.401 983.467 205.265C983.467 205.163 983.878 205.095 984.289 205.095C985.355 205.095 984.617 205.774 982.646 206.743C981.578 207.253 980.511 207.491 978.951 207.576C974.927 207.78 974.435 207.491 973.859 204.279C973.448 202.07 973.038 201.305 972.217 201.152C970.493 200.863 969.753 201.203 969.097 202.597C968.604 203.548 968.111 203.871 966.387 204.211C964.499 204.619 964.417 204.721 964.827 205.944C965.73 208.29 970.411 210.006 976.733 210.295C980.265 210.448 980.757 210.499 978.622 210.516C977.472 210.533 975.009 210.856 972.71 211.297C967.208 212.351 966.305 212.232 964.17 210.108C963.102 209.071 962.035 210.176 961.378 213.048C960.885 215.036 960.311 216.039 959.49 216.396C958.258 216.854 958.175 216.871 957.272 216.549Z" fill="#75E6DA"/>
</svg>
