<svg width="707" height="705" viewBox="0 0 707 705" fill="none" xmlns="http://www.w3.org/2000/svg">
<g clip-path="url(#clip0)">
<path d="M-257.474 -264.325C-236.296 -254.237 -193.106 -193.871 -144.804 -106.551C-139.171 -96.382 -133.538 -87.1819 -132.286 -86.052L-129.991 -84.0344L-128.426 -87.1819C-126.652 -90.4907 -125.713 -94.1223 -122.896 -107.923C-120.706 -118.737 -117.159 -123.821 -111.525 -123.821C-106.1 -123.821 -97.0241 -112.603 -91.0777 -98.3996C-87.5307 -90.0065 -83.4621 -83.4696 -81.5842 -83.4696C-80.9583 -83.4696 -79.4978 -85.1643 -78.2459 -87.3433C-76.368 -90.4907 -75.9507 -92.6697 -75.9507 -99.6102C-75.9507 -104.614 -76.5767 -109.617 -77.4113 -111.796C-80.228 -118.898 -77.4113 -121.561 -65.101 -123.337C-55.7119 -124.709 -48.8265 -127.937 -49.7654 -130.519C-51.7476 -135.927 -53.7298 -165.867 -53.2081 -183.138C-52.4779 -209.366 -49.2438 -220.503 -41.3152 -224.135C-38.3941 -225.426 -37.6638 -225.507 -34.4298 -224.458C-20.972 -220.1 -9.60074 -185.559 -5.63644 -137.056C-4.80185 -126.242 -3.75858 -124.063 1.97922 -121.4C5.10892 -119.947 5.3176 -119.947 7.92569 -121.319C12.4116 -123.74 19.297 -126.242 21.5921 -126.242C22.844 -126.242 24.9305 -125.354 26.2867 -124.225C28.4774 -122.611 28.8947 -121.481 28.8947 -117.203C28.8947 -114.379 28.1645 -108.891 27.3299 -104.856C26.4953 -100.901 25.765 -95.4943 25.765 -92.9118C25.765 -88.6345 26.078 -87.9082 28.8947 -85.8906L32.0245 -83.6309V-72.8167C32.0245 -61.4376 32.7547 -56.0305 34.2153 -56.0305C35.7801 -56.0305 42.0396 -63.2938 48.1947 -72.3325C51.4287 -77.1747 55.2887 -81.6941 56.6449 -82.3397C58.94 -83.5503 59.4617 -83.5503 64.0519 -81.7748C67.7033 -80.4029 69.7898 -78.8695 71.5633 -76.3677L73.9627 -72.8167L77.614 -75.5606C83.7691 -80.1607 88.1507 -86.052 91.0718 -93.5575C97.4356 -110.182 99.9394 -111.151 114.545 -102.838C122.682 -98.0768 127.272 -97.0277 128.941 -99.3681C129.463 -100.256 130.611 -104.21 131.445 -108.165C132.906 -114.944 133.845 -116.558 146.051 -134.313C161.908 -157.394 165.663 -162.639 170.462 -167.804C182.877 -181.201 205.724 -200.005 217.095 -206.219C237.125 -217.195 250.479 -212.352 248.705 -194.921C246.723 -175.794 229.405 -150.292 205.932 -131.891C194.77 -123.175 192.683 -120.996 192.683 -118.333C192.683 -116.154 196.648 -114.621 204.576 -113.733C216.886 -112.281 219.182 -105.744 211.566 -93.7188C209.375 -90.0872 203.324 -82.5818 198.317 -77.0133C182.042 -59.0165 178.704 -55.2235 179.225 -54.9813C179.434 -54.9007 181.625 -53.7708 184.024 -52.5603C189.345 -49.9777 192.057 -46.3461 191.118 -43.118C190.701 -41.8267 187.78 -38.8407 184.337 -36.1775C177.869 -31.3354 176.096 -28.2686 178.078 -25.444C179.538 -23.265 183.085 -22.6194 188.197 -23.6685C195.083 -25.1212 200.821 -28.6721 205.828 -34.7249C213.652 -43.8443 219.807 -47.9602 226.067 -48.1216C229.927 -48.2023 232.431 -46.5075 234.934 -42.3109C236.186 -40.132 237.543 -39.0828 238.794 -39.0828C240.046 -39.0828 247.036 -43.925 256.112 -51.0269C277.499 -67.6518 289.496 -74.3501 299.511 -75.1571C303.475 -75.5606 304.206 -75.3185 306.188 -73.3817C311.091 -68.6202 307.857 -59.2586 294.816 -40.0513C288.244 -30.2055 287.409 -28.5914 287.931 -25.6054C288.453 -21.8123 291.061 -18.1 293.251 -18.1C293.982 -18.1 301.91 -24.8791 310.882 -33.2722C329.765 -50.8655 333.938 -54.0936 342.284 -57.9674C350.317 -61.6797 357.306 -63.6973 372.433 -66.6026C379.319 -67.8938 386.726 -69.75 388.917 -70.6378C391.212 -71.5255 401.853 -79.0308 412.598 -87.3433C458.188 -122.772 493.345 -142.625 512.332 -143.755C518.487 -144.158 519.113 -144.078 522.242 -141.899C526.833 -138.751 527.459 -134.797 524.433 -127.856C516.192 -108.73 480.826 -77.4168 434.715 -48.3637C429.811 -45.297 414.997 -34.5634 401.853 -24.5562C388.604 -14.4683 372.851 -3.25063 366.696 0.38102C359.08 4.81968 355.429 7.56358 355.429 8.61271C355.429 9.50047 357.619 12.0022 360.332 14.2619C368.886 21.2831 365.965 25.8832 350.838 29.5148C341.658 31.7745 337.693 34.5991 337.693 39.0378C337.693 40.7326 338.424 42.8308 339.258 43.7186C344.162 48.7221 338.737 52.9187 314.742 62.8452C305.249 66.7997 295.129 71.3191 292.313 72.9331C287.618 75.5963 287.305 75.9191 289.496 76.1612C293.773 76.6454 312.238 73.9823 321.732 71.5611C326.739 70.2699 346.561 65.0242 365.652 59.8592C433.984 41.3782 487.19 29.1113 502.734 28.1429C511.81 27.578 514.001 28.3043 514.001 31.8552C514.001 35.5675 505.759 40.5711 482.599 50.9818C466.325 58.1644 402.27 83.828 377.545 92.9475C368.26 96.337 360.749 99.4844 360.853 99.888C361.062 100.291 364.296 102.551 367.947 104.811C371.807 107.232 375.563 110.379 376.711 112.155L378.693 115.383L375.98 121.436C372.433 129.183 372.329 132.331 375.667 134.025C381.822 137.173 396.741 136.204 425.221 130.797C491.78 118.127 555.939 118.772 591.826 132.411C611.439 139.836 620.098 149.924 615.195 159.85C611.335 167.759 596.73 173.973 575.343 176.879C566.997 178.009 561.677 178.089 537.995 177.524C522.764 177.121 500.96 176.879 489.485 176.879C468.724 176.879 468.516 176.879 450.05 180.268C428.247 184.303 419.588 185.272 407.59 185.11C393.82 184.868 388.395 188.177 388.395 196.974C388.395 202.704 391.003 206.013 396.949 207.949C413.537 213.276 425.639 220.62 430.333 228.206C433.254 233.129 433.254 235.469 430.229 238.213C428.351 239.827 426.577 240.473 422.613 240.715C417.397 241.118 414.58 240.554 389.647 233.774C379.527 231.031 359.81 229.336 348.856 230.223C343.118 230.708 342.91 230.788 344.579 232.16C347.709 234.824 363.044 239.989 382.344 244.911C412.807 252.74 424.908 257.985 424.074 263.231C423.552 266.701 420.109 267.75 410.72 267.266C402.479 266.863 394.341 265.007 386.726 261.859C382.24 260.003 381.197 259.922 364.4 260.164C344.892 260.406 341.553 260.971 347.083 263.15C353.342 265.652 363.357 268.315 385.369 273.158C440.14 285.344 468.307 294.705 479.783 304.551C484.582 308.667 485.625 311.976 483.017 315.446C473.836 327.874 418.649 324.162 379.945 308.506C374.207 306.165 360.54 299.467 349.691 293.656C319.124 277.354 295.129 267.428 283.132 266.136C279.272 265.733 279.272 265.814 280.315 267.912C283.028 273.561 290.539 281.631 303.684 293.011C314.534 302.372 315.785 303.825 315.785 306.811C315.785 313.186 309.213 314.8 285.01 314.155L267.275 313.671L270.926 315.123C272.908 316.011 279.794 317.786 286.053 319.239C317.559 326.18 329.661 330.134 336.129 335.38C337.798 336.832 344.788 340.867 351.464 344.338C365.235 351.52 367.947 353.457 367.947 356.12C367.947 359.429 361.166 360.478 350.421 358.864C346.248 358.219 346.039 358.299 346.665 359.913C347.709 362.335 351.673 367.015 353.968 368.549C355.116 369.194 359.289 371.293 363.461 373.149C388.812 384.609 418.127 409.788 420.735 422.297C421.361 425.202 421.048 425.929 418.544 427.785C416.249 429.641 415.206 429.883 411.972 429.48C406.13 428.753 396.845 424.799 384.118 417.616C369.825 409.546 367.008 407.528 365.131 403.977C362.94 400.104 358.767 395.907 356.889 395.907C354.803 395.907 354.907 396.23 359.602 402.767C361.897 405.995 363.774 409.707 363.774 410.998C363.774 414.146 360.853 416.083 356.263 416.083C350.63 416.083 342.91 411.16 321.002 393.486C302.119 378.233 301.702 377.991 301.076 380.331C299.511 386.223 295.755 386.223 288.661 380.412C280.211 373.472 281.88 377.749 297.529 402.686C303.58 412.37 309.735 423.346 311.091 427.139C318.811 447.638 312.864 465.231 299.72 460.954C294.921 459.42 289.496 453.61 282.923 443.118C276.873 433.273 270.926 426.816 261.954 420.118L256.112 415.679L256.634 419.392C257.051 421.409 259.451 427.543 262.059 432.95C264.667 438.438 267.275 445.459 267.796 448.687C268.422 451.834 270.092 461.277 271.656 469.75C275.412 490.088 275.725 510.183 272.387 514.541C271.239 516.074 269.048 517.849 267.483 518.414C253.713 523.579 227.214 487.263 210.94 441.101C206.871 429.237 205.619 426.574 204.263 426.574C202.803 426.574 199.151 433.918 197.795 439.81C196.23 446.831 193.101 449.897 186.632 450.543C180.582 451.189 173.592 449.01 170.88 445.701C169.836 444.248 168.376 440.939 167.646 438.276C167.02 435.613 164.411 427.058 161.908 419.311C159.404 411.563 157.109 403.574 156.692 401.556C155.544 395.826 153.875 391.065 153.04 391.065C150.849 391.065 145.738 405.188 142.921 419.311C140.208 432.869 140.313 468.459 143.025 481.452C144.903 490.572 144.903 490.814 142.921 498.4L140.834 506.067L143.234 514.783C153.145 550.211 149.285 574.664 133.219 578.377C115.484 582.493 98.7918 557.636 98.7918 527.211V519.302L95.6621 522.046C88.881 528.099 82.4129 527.615 78.1357 520.835C75.7362 517.123 73.9627 510.505 71.7719 496.463C69.8941 484.358 64.6779 478.708 59.566 483.389C56.7492 485.891 55.4973 491.217 56.4362 497.432C58.3141 510.505 58.3141 513.411 56.6449 518.495C54.5584 524.871 54.5584 528.099 56.7492 539.074C58.2098 546.66 58.3141 549.404 57.2708 557.717C54.8714 577.166 47.5688 587.173 35.6758 587.173C27.2256 587.173 16.3759 578.619 11.264 567.805C5.00461 554.569 5.8392 541.253 13.7678 528.422C18.4624 520.674 18.4624 519.867 13.6635 520.432C9.8035 520.916 6.36081 522.127 -2.71536 526.162C-6.15805 527.695 -8.45316 528.26 -10.2267 527.937C-15.0256 526.969 -15.3385 525.113 -12.3131 512.362C-8.76614 497.351 -8.76614 484.196 -12.5218 481.372C-15.4429 479.031 -18.4683 479.677 -24.6234 483.873C-32.6563 489.361 -34.7428 493.719 -35.786 507.762C-36.412 514.379 -37.7682 523.257 -38.9157 527.453C-40.8979 534.878 -41.8368 542.787 -44.1319 572.243C-45.3838 588.223 -46.4271 592.096 -53.1038 605.735C-67.2918 635.111 -83.5664 652.22 -99.7366 655.045C-107.352 656.336 -112.881 655.045 -119.245 650.445C-129.782 642.859 -135.102 630.834 -135.207 614.612C-135.207 597.665 -130.303 585.882 -117.263 571.921C-105.683 559.573 -95.1463 541.334 -89.9301 524.628C-88.8869 521.078 -87.948 516.962 -87.948 515.509V512.927L-96.0852 512.846C-100.467 512.846 -105.787 512.442 -107.77 511.877C-112.986 510.505 -112.986 507.762 -107.978 497.916C-99.2149 480.887 -92.3296 460.873 -94.6247 459.098C-97.2328 457.08 -112.464 468.298 -130.303 485.487C-140.944 495.656 -146.161 499.207 -153.881 501.305C-165.982 504.614 -174.12 500.579 -173.702 491.621C-173.389 486.295 -170.364 480.484 -160.349 466.038C-146.578 446.104 -137.293 430.206 -138.232 428.027C-138.441 427.543 -141.988 430.044 -146.161 433.515C-161.705 446.75 -180.692 466.442 -193.106 482.179C-201.974 493.396 -205.208 496.463 -210.529 498.4C-215.327 500.175 -215.432 500.175 -226.386 496.705C-230.559 495.414 -231.706 496.06 -237.131 503.161C-241.617 509.133 -258.622 524.144 -268.011 530.358C-280.634 538.752 -290.545 542.625 -296.804 541.657C-312.349 539.236 -306.611 518.818 -284.911 499.368C-281.782 496.625 -280.947 495.253 -280.947 492.67C-280.947 489.119 -281.156 489.038 -289.293 490.733C-297.013 492.347 -302.125 492.267 -305.046 490.491C-310.366 487.102 -306.402 480.242 -292.11 468.136C-287.624 464.343 -284.181 461.277 -284.494 461.277C-284.807 461.277 -289.71 462.648 -295.239 464.424C-309.636 468.863 -324.763 472.494 -331.231 473.059C-335.926 473.463 -337.178 473.301 -339.681 471.768C-346.88 467.41 -341.455 461.841 -304.42 435.855C-274.792 415.034 -247.563 393.163 -247.563 390.096C-247.563 388.967 -252.571 389.935 -272.706 395.181C-282.721 397.763 -292.214 399.942 -293.779 399.942C-296.178 399.942 -299.725 397.44 -299.725 395.746C-299.725 395.423 -297.117 392.84 -293.988 389.935C-288.771 385.254 -286.163 381.784 -286.163 379.686C-286.163 378.072 -292.423 379.121 -300.351 382.026C-310.053 385.738 -318.921 390.016 -335.091 399.054C-341.664 402.686 -350.218 407.125 -354.182 408.981C-374.943 418.504 -416.255 428.188 -436.285 428.188C-446.509 428.188 -451.308 427.139 -454.542 424.072C-460.906 418.262 -456.316 408.981 -441.606 397.521C-419.802 380.493 -386.21 364.917 -345.941 353.054C-324.45 346.759 -313.288 340.787 -313.288 335.541C-313.288 332.394 -316.73 331.829 -331.544 332.636C-338.951 332.959 -350.322 333.281 -356.686 333.362C-366.701 333.362 -368.684 333.12 -370.561 331.829C-379.012 325.937 -363.989 317.06 -330.084 307.941C-308.593 302.13 -301.812 298.74 -306.507 296.077C-310.366 293.979 -316.104 293.253 -334.152 292.688C-354.182 292.123 -359.294 291.074 -362.215 286.877C-363.572 285.021 -363.467 284.456 -361.694 281.712C-358.877 277.193 -350.114 272.915 -329.875 266.217C-309.741 259.599 -299.412 254.919 -302.125 253.789C-305.255 252.417 -319.964 252.013 -335.196 253.062C-353.661 254.192 -355.747 254.515 -380.055 260.084C-439.311 273.561 -501.592 283.084 -552.189 286.554C-596.631 289.621 -620 286.474 -620 277.354C-620 263.231 -548.329 239.02 -406.657 205.448C-354.913 193.181 -334.048 187.532 -335.613 186.321C-335.926 186.079 -343.541 186.321 -352.618 186.886C-371.605 188.016 -379.22 187.37 -384.854 184.061C-387.566 182.447 -388.401 181.398 -388.401 179.381C-388.401 171.875 -377.134 168.324 -353.452 168.324C-339.89 168.324 -332.066 167.517 -325.598 165.338C-321.112 163.886 -320.069 162.433 -322.364 160.9C-323.616 160.092 -329.04 159.85 -342.915 159.689C-353.348 159.608 -364.093 159.124 -367.014 158.64C-383.289 155.815 -386.523 148.229 -374.943 139.836C-368.475 135.155 -363.572 133.218 -354.913 132.088C-341.768 130.394 -329.04 131.604 -309.532 136.446C-295.761 139.836 -291.692 140.078 -290.754 137.334C-289.606 133.703 -290.754 130.232 -293.57 128.538C-297.639 126.197 -303.481 125.632 -322.677 125.552C-350.114 125.471 -367.327 123.453 -393.095 117.401C-414.273 112.316 -420.95 107.393 -413.96 101.986C-411.143 99.8072 -407.283 98.516 -393.513 95.3686C-383.602 93.1089 -378.803 90.7685 -380.681 89.2351C-382.767 87.6211 -392.469 86.0877 -407.075 85.2C-485.735 80.1964 -530.177 70.3506 -541.34 55.6626C-545.408 50.3362 -544.469 46.3818 -538.314 41.9431C-529.655 35.8904 -513.172 33.4693 -491.89 35.0834C-478.745 36.0518 -456.107 40.0062 -450.473 42.2659C-448.804 42.9115 -439.624 47.4309 -430.235 52.3538C-410.1 62.7645 -400.189 66.6383 -393.93 66.6383C-388.609 66.6383 -388.192 66.154 -385.897 57.3574C-382.976 46.2204 -378.594 41.6203 -371.292 41.6203C-369.831 41.6203 -360.755 44.3642 -351.157 47.7538C-333.422 53.9679 -316.417 58.8908 -315.374 58.003C-315.061 57.7609 -321.738 52.4345 -330.188 46.1397C-338.638 39.9255 -346.254 33.55 -347.193 32.0973C-348.132 30.5639 -348.758 27.9815 -348.549 26.1253C-348.132 21.4445 -344.376 19.4269 -336.447 19.5077C-331.336 19.5077 -328.623 20.234 -317.46 24.5112C-310.366 27.2552 -303.585 29.5148 -302.542 29.5148C-299.412 29.5148 -305.776 23.3814 -320.069 12.7286C-335.509 1.10734 -343.228 -3.41207 -356.269 -8.49636C-380.472 -17.8579 -411.561 -32.9494 -429.191 -43.6829C-464.87 -65.6342 -477.598 -86.6977 -459.028 -93.1539C-442.232 -99.1259 -408.327 -87.1012 -373.795 -62.971C-367.327 -58.4516 -359.503 -54.4164 -357.312 -54.4164C-354.913 -54.4164 -348.758 -60.1463 -347.61 -63.4552C-347.088 -65.1499 -345.524 -67.4903 -344.167 -68.7009C-341.768 -70.7992 -341.664 -70.8798 -334.778 -70.0728C-330.397 -69.5886 -327.893 -69.5079 -327.893 -69.9921C-327.893 -70.4763 -332.066 -74.1887 -337.178 -78.2238C-344.167 -83.7924 -347.61 -87.3433 -350.635 -92.1048C-355.956 -100.256 -362.841 -106.551 -375.047 -114.54C-380.368 -118.01 -391.53 -126.081 -399.876 -132.295C-412.5 -141.818 -417.924 -145.207 -431.799 -152.229C-452.769 -163.043 -457.359 -166.029 -467.165 -175.471C-486.152 -193.791 -495.333 -207.994 -493.35 -215.984C-493.038 -217.517 -491.264 -219.777 -489.595 -221.068C-481.04 -227.444 -459.654 -222.36 -433.156 -207.752C-418.655 -199.763 -406.657 -190.643 -392.261 -176.682C-376.09 -161.106 -367.223 -153.358 -360.964 -149.485C-358.147 -147.79 -355.539 -146.418 -355.226 -146.418C-354.808 -146.418 -354.495 -149.485 -354.495 -153.278C-354.495 -159.653 -354.287 -160.218 -351.574 -162.316C-349.175 -164.173 -347.819 -164.576 -343.75 -164.496C-330.918 -164.415 -311.618 -150.695 -290.858 -127.049C-278.13 -112.603 -274.688 -110.344 -271.141 -114.298C-268.741 -116.881 -269.159 -118.898 -272.706 -123.014C-275.522 -126.162 -275.835 -127.13 -275.209 -130.277C-273.957 -137.056 -269.576 -139.558 -263.003 -137.46C-255.388 -135.039 -240.887 -121.158 -219.083 -95.575C-212.511 -87.8275 -205.73 -80.08 -203.956 -78.3853C-198.114 -72.736 -186.534 -66.5219 -181.839 -66.5219C-180.066 -66.5219 -179.753 -67.0061 -179.753 -69.8307C-179.753 -74.0273 -184.552 -85.0836 -190.498 -94.9294C-193.106 -99.0452 -199.887 -110.263 -205.834 -119.786C-256.744 -202.668 -280.321 -259.241 -266.342 -265.052C-263.525 -266.262 -261.021 -266.02 -257.474 -264.325Z" fill="#75E6DA"/>
<path d="M461.63 456.031C473.732 461.034 488.337 468.943 495.222 474.189C501.691 479.031 509.098 489.361 510.349 495.091C511.81 501.79 506.281 504.614 497.622 501.628C482.391 496.463 467.055 483.066 452.032 462.164C444.417 451.512 446.921 449.897 461.63 456.031Z" fill="#75E6DA"/>
<path d="M264.771 547.387C275.412 551.503 295.86 569.58 304.518 582.573C310.256 591.128 309.109 599.844 301.284 607.833C291.687 617.679 277.707 618.002 272.7 608.398C271.865 606.704 270.092 601.7 268.944 597.261C265.397 584.752 259.763 570.064 254.026 558.282C251.209 552.39 249.122 546.983 249.435 546.338C250.374 544.401 258.303 544.966 264.771 547.387Z" fill="#75E6DA"/>
<path d="M379.214 633.739C380.362 634.546 384.222 638.823 387.769 643.262C396.115 653.753 403.835 661.904 414.684 672.154C424.804 681.515 426.369 683.936 426.369 689.666C426.369 695.073 423.343 699.593 417.814 702.337C414.163 704.274 412.389 704.596 406.13 704.596C399.975 704.596 397.888 704.193 393.82 702.417C383.909 697.817 379.006 690.715 370.138 667.876C362.001 646.813 361.584 639.63 368.156 634.143C370.868 631.964 376.189 631.802 379.214 633.739Z" fill="#75E6DA"/>
</g>
<defs>
<clipPath id="clip0">
<rect width="1327" height="1033" fill="white" transform="matrix(-1 0 0 1 707 -328)"/>
</clipPath>
</defs>
</svg>
