<svg width="839" height="851" viewBox="0 0 839 851" fill="none" xmlns="http://www.w3.org/2000/svg">
<path d="M-139.979 -9.02551C-139.475 -8.34973 -137.294 -4.83569 -135.112 -1.32159C-130.916 5.36865 -128.902 6.72021 -126.72 4.35498C-126.133 3.6792 -125.629 2.19244 -125.629 0.976074C-125.629 -1.86224 -122.021 -5.37628 -119.252 -5.37628C-116.482 -5.37628 -113.629 -2.80835 -109.517 3.27368C-103.307 12.3292 -99.8668 14.2214 -96.4261 10.3018C-95.0835 8.81512 -94.9156 7.73389 -95.2513 4.55768C-95.587 1.38153 -95.3353 0.367859 -94.0765 -0.713379C-92.6499 -1.92981 -91.8947 -2.06494 -86.7758 -1.65948C-81.489 -1.18646 -80.9016 -1.32159 -78.8876 -2.74072L-76.7897 -4.36261L-77.2932 -2.33527C-78.3841 2.12488 -78.5519 6.112 -77.8806 9.08545C-76.9575 13.2077 -76.3701 13.6132 -74.2722 11.3155C-72.1743 9.01782 -69.3211 7.80145 -64.5378 7.12567C-61.0134 6.65259 -57.9084 4.42255 -56.4818 1.11121C-55.6427 -0.916138 -54.7196 0.502991 -52.7056 6.78778C-51.6986 9.96393 -50.4398 13.5456 -50.0203 14.6944L-49.0972 16.9245H-41.3768C-22.9991 16.9245 -0.25769 20.1682 78.2883 34.1569C93.729 36.86 109.757 39.6307 113.953 40.1714C118.065 40.7795 122.345 41.4553 123.352 41.5905C124.862 41.8608 125.282 41.6581 125.282 40.5768C125.282 39.8335 125.449 39.2253 125.617 39.2253C125.869 39.2253 128.806 39.6983 132.163 40.239C140.471 41.6581 156.667 43.4827 183.184 45.9831C247.884 51.9976 274.234 56.728 298.654 66.5944L309.059 70.7842L311.241 66.8647C314.178 61.7288 319.884 57.4038 325.926 55.7819C328.36 55.1061 330.961 54.2952 331.549 53.8897C333.227 52.8085 333.479 53.687 332.64 56.8632C331.549 60.6475 331.465 67.6757 332.472 69.8381C333.143 71.2573 333.899 71.5276 338.43 71.7979C341.451 72.0007 344.052 72.5413 344.808 73.1495C345.479 73.6901 346.402 76.1905 346.906 78.6909C348.08 85.719 350.43 88.287 358.57 91.5983C360.164 92.2741 363.018 93.4229 364.78 94.0987C383.829 101.803 438.627 97.6804 484.025 85.0432C492.753 82.6104 508.277 76.9338 509.116 75.785C510.375 74.2307 512.138 75.1768 514.235 78.4206C519.019 85.9893 524.221 88.8276 534.795 89.571C543.103 90.1792 545.788 90.855 548.641 93.2878C551.662 95.8557 552.501 95.8557 551.914 93.2878C551.327 90.9225 551.41 90.9225 554.599 92.2741C560.054 94.5718 574.32 93.4229 608.222 87.9491C628.194 84.7053 642.964 83.4214 649.509 84.2999C656.055 85.246 656.894 85.719 655.551 88.0842C654.712 89.571 654.796 90.1792 655.971 91.5983C656.726 92.5444 658.32 93.6932 659.411 94.0987C662.852 95.3151 664.53 93.3553 668.306 83.5565C670.153 78.6909 672.754 73.3522 673.929 71.6628L676.195 68.6218L676.698 77.069C677.705 93.2202 682.656 107.952 689.286 114.845L690.88 116.467V113.629C690.88 112.142 691.216 110.858 691.635 110.858C692.139 110.858 697.509 117.008 703.719 124.509C710.349 132.618 716.642 139.511 719.076 141.268L723.188 144.309L723.44 136.605L723.691 128.834L726.377 132.145C727.887 133.97 730.656 136.403 732.67 137.551C736.195 139.511 736.698 139.579 746.768 139.782L757.258 140.052L761.622 137.349C764.055 135.93 769.342 132.348 773.538 129.51C781.93 123.766 791.16 119.643 796.951 119.17C801.902 118.697 807.524 120.387 811.888 123.563C813.65 124.847 815.328 125.793 815.496 125.59C815.748 125.455 817.426 119.846 819.356 113.156C821.286 106.533 823.72 97.8831 824.895 93.9636C825.986 90.044 827.161 85.8542 827.412 84.6378C827.664 83.489 828.168 82.4753 828.587 82.4753C830.853 82.4753 831.356 92.8823 834.377 203.102C839.916 404.215 839.916 571.606 834.294 669.053C832.615 699.531 828.587 736.902 825.902 748.39C825.482 750.215 825.147 755.418 825.147 760.014C825.147 764.609 824.979 768.393 824.727 768.393C824.559 768.393 823.384 768.055 822.21 767.582C820.615 766.974 819.86 766.974 819.105 767.582C817.594 768.799 815.496 768.596 813.818 767.042C811.888 765.285 810.881 765.893 810.881 768.799C810.881 771.367 812.14 771.705 816.419 770.421C819.356 769.475 819.608 769.812 818.014 772.178C817.342 773.259 816.755 775.151 816.755 776.368C816.755 779.206 819.189 788.802 820.112 789.545C820.447 789.883 821.203 788.532 821.706 786.504C823.888 778.53 826.154 773.664 828.839 771.232C832.28 768.258 834.629 768.528 833.874 771.907C831.524 782.382 828.755 786.775 821.874 791.1C819.189 792.789 816.084 795.425 814.993 796.979C813.147 799.614 812.979 799.682 812.727 798.128C812.559 797.182 812.811 794.951 813.398 793.059C814.321 789.883 814.237 789.342 811.72 784.071C810.209 780.963 808.112 777.584 807.105 776.638L805.174 774.813L803.328 776.165C800.223 778.462 799.804 779.814 799.049 790.153C798.713 795.83 797.874 800.966 797.286 801.98C796.447 803.399 794.265 804.48 787.384 806.778C782.517 808.4 771.608 812.116 763.048 815.022C743.16 821.78 738.377 823.267 728.642 825.767C710.6 830.362 699.775 831.917 684.922 831.917H674.684L675.104 836.309L675.607 840.634L671.579 839.012C669.397 838.134 663.523 836.444 658.656 835.363C653.789 834.282 647.999 832.593 645.901 831.646L642.124 829.957L641.285 831.646C640.278 833.944 638.012 845.094 638.012 848.271C638.012 849.69 637.593 850.839 637.173 850.839C636.67 850.839 636.334 850.568 636.334 850.163C636.334 849.825 634.824 848.609 632.977 847.527C625.425 843.135 606.544 840.364 586.739 840.837L574.404 841.107L574.068 827.727C573.9 820.361 573.397 814.144 573.061 813.873C571.97 812.995 569.62 814.752 568.613 817.32C568.026 818.739 566.935 823.807 566.264 828.673C564.837 838.201 564.166 840.026 561.648 840.026C559.55 840.026 559.299 839.621 558.292 833.876C557.033 826.916 555.942 823.943 554.012 822.388C552.501 821.172 552.166 821.172 550.068 822.05C548.809 822.591 546.459 824.078 544.949 825.429C541.34 828.403 539.243 828.538 538.068 825.835C537.564 824.753 536.809 823.807 536.473 823.807C535.718 823.807 533.704 827.93 532.445 831.917L531.69 834.282L531.103 832.255C530.767 831.106 530.096 829.551 529.676 828.673C528.921 827.119 528.921 827.119 526.403 828.335C524.138 829.416 523.718 829.416 523.047 828.538C521.872 827.051 522.04 823.334 523.466 819.144C524.138 817.117 524.389 815.157 524.138 814.752C522.795 812.927 517.76 808.264 517.089 808.264C515.159 808.264 513.396 820.564 514.655 825.835C515.159 827.862 515.159 829.754 514.823 830.025C513.061 831.444 490.571 837.12 470.179 841.243C439.801 847.527 417.48 850.366 398.011 850.433C384.332 850.501 379.214 849.893 375.857 847.933C374.514 847.122 374.43 846.784 375.605 843.202C376.276 841.107 378.207 837.931 379.801 836.174C383.242 832.255 385.088 827.93 386.179 821.104C386.85 816.644 386.766 815.698 385.256 813.13C383.661 810.427 381.899 809.548 380.808 810.967C379.969 812.049 377.787 811.778 376.528 810.427C375.521 809.413 375.437 809.548 375.353 811.778C375.353 815.09 373.172 824.078 371.913 825.97C371.409 826.848 369.311 828.876 367.381 830.565C363.185 834.079 361.423 837.796 359.913 845.973C358.822 852.325 357.731 852.596 357.647 846.514C357.563 844.216 357.311 840.702 356.976 838.675L356.388 834.958L355.297 840.161C354.626 843.067 353.871 845.432 353.535 845.432C353.032 845.432 342.206 835.566 339.521 832.66C339.353 832.457 337.843 833.471 336.08 834.89C332.724 837.728 326.43 840.296 324.248 839.688C321.227 838.945 316.444 833.944 311.157 825.835C304.779 816.171 303.521 814.819 301.087 815.225C299.325 815.428 299.325 815.225 299.577 807.656C299.828 800.223 299.744 799.952 298.57 801.98C297.898 803.196 297.143 804.21 296.891 804.21C296.64 804.21 295.297 802.723 293.87 800.831C292.444 799.006 290.765 797.452 290.178 797.452C289.591 797.452 288.919 798.601 288.583 800.155C287.996 803.196 287.157 803.399 283.213 801.507C279.437 799.614 277.255 795.357 276.583 788.734L276.08 783.328L274.066 787.856C270.29 796.168 269.534 799.412 270.541 803.399C271.381 806.643 271.297 807.116 269.87 807.926C267.52 809.413 264.667 809.143 263.66 807.386C262.989 806.237 263.157 805.156 264.499 802.588C265.506 800.831 266.262 799.074 266.262 798.736C266.262 797.317 261.311 798.263 257.283 800.493C254.849 801.777 251.912 802.858 250.737 802.858C248.136 802.858 245.87 800.155 243.94 794.816C242.681 791.37 242.681 791.032 244.443 786.504C246.541 781.233 246.29 779.882 243.185 779.882C238.15 779.882 236.303 782.382 234.038 792.046C231.94 800.696 232.192 802.993 235.632 807.048C237.227 808.94 238.317 810.765 238.15 810.967C237.646 811.643 230.681 810.562 227.24 809.21C223.464 807.791 218.597 803.737 215.073 799.074C212.387 795.492 212.303 795.222 213.73 794.411C215.073 793.532 215.073 793.397 213.31 790.559C208.191 782.45 200.723 775.962 175.632 757.919C165.73 750.755 156.247 743.727 154.569 742.308C147.855 736.564 140.219 728.184 137.114 723.251C131.911 714.871 131.827 714.534 134.596 703.113L137.03 693.044L133.589 686.624C129.31 678.65 128.303 677.703 128.974 682.231C129.226 684.056 129.813 691.827 130.317 699.464C130.82 707.1 131.324 715.277 131.575 717.71C131.743 720.143 132.163 725.143 132.498 728.792L133.086 735.483L129.394 735.01C109.505 732.442 70.7358 728.319 55.2112 727.103C24.8334 724.873 3.60248 725.954 -4.87311 730.212C-7.3067 731.496 -8.14581 732.509 -9.23676 735.753C-10.999 740.619 -11.0829 753.391 -9.48853 761.162C-8.73328 764.812 -8.73328 766.298 -9.32068 766.163C-10.7473 765.825 -13.2648 761.095 -14.1879 756.973C-15.8661 749.809 -16.7892 747.782 -18.6354 747.782C-20.062 747.782 -20.3138 748.323 -20.5655 751.499C-20.7333 753.526 -20.3976 757.446 -19.8942 760.149C-19.3907 762.919 -19.055 765.285 -19.3068 765.42C-19.4746 765.623 -20.7333 765.825 -22.076 765.893C-24.5096 766.028 -24.5096 765.96 -24.4257 762.311C-24.4257 760.284 -24.0061 755.418 -23.4187 751.499C-22.9152 747.579 -22.2438 737.105 -21.9082 728.252C-21.4047 713.655 -21.4886 712.101 -22.6635 712.506C-23.4187 712.709 -25.5166 713.25 -27.4467 713.655L-30.8873 714.398L-30.7194 721.494C-30.6355 725.414 -30.8033 728.725 -31.0551 728.928C-31.2229 729.13 -32.2299 724.873 -33.3209 719.602C-36.9293 700.477 -40.7055 692.098 -44.5657 694.666C-45.0692 695.003 -47.5867 695.95 -50.1042 696.828C-54.2161 698.112 -56.8175 698.382 -73.6008 698.788C-84.0065 699.058 -93.1534 699.531 -93.9926 699.801C-96.7618 700.748 -95.1674 709.195 -90.8038 716.966C-89.6289 718.926 -88.7058 720.683 -88.7058 720.818C-88.7058 720.953 -89.6289 721.089 -90.7198 721.089C-91.8107 721.089 -93.2374 721.562 -93.8248 722.237C-94.8317 723.184 -95.0835 722.846 -95.5031 719.129C-95.8387 716.088 -96.5101 714.534 -97.9366 713.317C-99.2794 712.168 -100.119 710.344 -100.538 707.776C-101.629 701.356 -105.321 694.26 -109.265 690.881L-112.874 687.908L-121.433 688.11L-129.909 688.313L-132.678 685.88C-138.301 681.015 -137.881 685.542 -141.154 593.704C-142.832 547.616 -144.678 495.31 -145.35 477.469C-146.021 459.629 -147.951 408.54 -149.545 363.938C-151.14 319.337 -153.07 267.301 -153.741 248.38C-155.503 199.926 -158.189 122.211 -159.196 90.2468C-160.539 45.5776 -161.042 33.1432 -161.462 33.1432C-162.552 33.1432 -166.748 35.3057 -166.748 35.8464C-166.748 36.2518 -167.168 36.5222 -167.588 36.5222C-168.678 36.5222 -167.923 33.819 -165.909 29.967C-164.818 27.9397 -163.727 26.9937 -162.133 26.6558C-158.021 25.8448 -157.518 26.9937 -156.93 39.7659C-156.51 48.551 -156.091 51.592 -155.252 52.2003C-153.49 53.3491 -152.734 51.9976 -152.063 46.4561C-151.559 42.6718 -151.056 41.3878 -149.294 40.0362C-147.364 38.4143 -147.28 38.0089 -147.699 33.1432C-148.622 23.8174 -153.406 16.9921 -159.867 15.8433C-163.476 15.235 -163.979 15.0323 -161.797 14.9647C-160.622 14.8972 -158.105 13.6132 -155.755 11.8561C-150.133 7.66626 -149.21 8.13934 -147.028 16.5866C-145.937 20.7089 -144.846 16.3163 -144.175 4.89557C-143.671 -3.01105 -143.084 -6.99817 -142.245 -8.4173C-140.986 -10.2419 -140.902 -10.3095 -139.979 -9.02551Z" fill="#189AB4"/>
</svg>
